<?xml version="1.0" standalone="no"?>
<!DOCTYPE svg PUBLIC "-//W3C//DTD SVG 1.1//EN" "http://www.w3.org/Graphics/SVG/1.1/DTD/svg11.dtd" >
<svg xmlns="http://www.w3.org/2000/svg">
<metadata>
Copyright   : Copyright 2014 Luc(as) de Groot. All rights reserved. Published by LucasFonts.com
Designer    : Luc(as) de Groot
Foundry     : LucasFonts
Foundry URL : http://lucasfonts.com
</metadata>
<defs>
<font id="TheSansMono_500_" horiz-adv-x="1228" >
<font-face units-per-em="2048" ascent="1516" descent="-532" />
<missing-glyph horiz-adv-x="500" />
<glyph unicode=" " />
<glyph unicode="!" d="M541 365l-31 1081h205l-29 -1081h-145zM612 240q55 0 94 -38t39 -93q0 -53 -38.5 -91t-94.5 -38q-57 0 -95 37.5t-38 91.5q0 55 38 93t95 38z" />
<glyph unicode="&#x22;" d="M330 1008l-33 503h225l-33 -503h-159zM733 1008l-35 503h226l-33 -503h-158z" />
<glyph unicode="#" d="M819 0h-143l43 395h-275l-41 -395h-143l41 395h-250v123h264l41 391h-250v123h263l37 350h143l-37 -350h272l37 350h144l-37 -350h250v-123h-265l-39 -391h246v-123h-260zM498 909l-39 -391h272l41 391h-274z" />
<glyph unicode="$" d="M1051 395q0 -86 -32 -155.5t-88.5 -121.5t-133 -85t-166.5 -43l-15 -299h-133l15 293q-76 2 -153 14t-144 35l18 172q125 -59 291 -66l20 498q-96 33 -165.5 68.5t-114.5 80.5t-66.5 102.5t-21.5 133.5q0 74 26.5 137.5t78.5 113.5t128 81.5t172 40.5l11 227h133 l-11 -223q59 -2 128 -13.5t126 -31.5l-22 -146q-59 23 -120.5 35t-119.5 14l-20 -477q190 -66 284.5 -154t94.5 -231zM864 365q0 86 -45 138t-160 97l-18 -461q96 14 159.5 69t63.5 157zM557 1251q-94 -10 -154.5 -63t-60.5 -150q0 -78 45 -127t154 -90l16 430v0z" />
<glyph unicode="%" d="M623 1204q0 -162 -83 -249t-210 -87q-123 0 -196 70t-73 238q0 80 22.5 140t62.5 102t92.5 63.5t111.5 21.5q61 0 111.5 -15t86.5 -50t55.5 -92.5t19.5 -141.5zM1169 305q0 -80 -22.5 -142.5t-62.5 -105.5t-94 -65.5t-116 -22.5q-125 0 -195.5 70t-70.5 235 q0 80 22.5 141.5t61.5 103.5t91.5 63.5t111.5 21.5q61 0 111.5 -15.5t87 -50t56 -92t19.5 -141.5zM74 45l960 1450l117 -86l-963 -1450zM1026 293q0 106 -28.5 151t-110.5 45q-68 0 -102.5 -53t-34.5 -145q0 -104 28.5 -154.5t106.5 -50.5q72 0 106.5 53.5t34.5 153.5z M479 1190q0 109 -27.5 154t-109.5 45q-68 0 -102.5 -53.5t-34.5 -147.5q0 -104 27.5 -153.5t105.5 -49.5q74 0 107.5 53.5t33.5 151.5z" />
<glyph unicode="&#x26;" d="M983 0q0 133 -60.5 245.5t-150.5 211t-196.5 188.5t-196.5 179t-150.5 182.5t-60.5 199.5q0 63 23.5 119.5t68.5 98.5t112.5 67t153.5 25q160 0 242 -78t82 -197q0 -100 -43 -178t-108.5 -143.5t-141.5 -126t-141.5 -124t-108.5 -138t-43 -171.5q0 -43 13.5 -85t39 -73.5 t64.5 -52t90 -20.5q109 0 194 66.5t142 175t86 246t29 278.5h163q2 -197 -47 -365t-137 -290.5t-203.5 -191t-244.5 -68.5q-92 0 -160 28.5t-114 76.5t-68.5 112.5t-22.5 138.5q0 115 44 202t109.5 158.5t141.5 132t141.5 120t109.5 126t44 148.5q0 66 -40 111.5t-128 45.5 q-74 0 -122 -45t-48 -121q0 -84 60.5 -164.5t150.5 -165.5t195.5 -177.5t195.5 -199t150.5 -231t60.5 -276.5h-170z" />
<glyph unicode="'" d="M512 1008l-35 503h234l-35 -503h-164z" />
<glyph unicode="(" d="M838 -459q-129 119 -223.5 240t-157 247t-92 261t-29.5 282q0 156 36 298.5t101.5 272.5t158.5 247.5t208 224.5l98 -101q-207 -207 -317.5 -442t-110.5 -485q0 -262 106.5 -494.5t323.5 -445.5l-102 -105v0z" />
<glyph unicode=")" d="M403 1612q129 -119 223.5 -239t156 -246t91 -261t29.5 -282q0 -156 -36 -299.5t-101.5 -273.5t-158.5 -247.5t-208 -224.5l-98 101q209 207 318.5 442t109.5 487q0 516 -430 940l104 103v0z" />
<glyph unicode="*" d="M659 963l23 -385h-133l22 385l-323 -211l-66 116l346 170l-344 172l68 117l319 -213l-20 385h131l-20 -385l317 211l68 -117l-342 -170l342 -168l-68 -118z" />
<glyph unicode="+" d="M694 0h-164v455h-434v145h434v453h164v-453h439v-145h-439v-455z" />
<glyph unicode="," d="M281 -272q80 20 133 48.5t83.5 58.5t44 60.5t13.5 59.5q0 78 -59 137q-33 33 -40 76t7 81t48 63.5t83 25.5q47 0 82 -20.5t58.5 -56.5t34.5 -81t11 -94q0 -188 -121.5 -303t-345.5 -168l-32 113v0z" />
<glyph unicode="-" d="M293 604h643v-160h-643v160z" />
<glyph unicode="." d="M606 330q72 0 123 -51.5t51 -124.5q0 -72 -51 -123t-123 -51q-74 0 -125 51t-51 123q0 74 51 125t125 51z" />
<glyph unicode="/" d="M244 14l555 1405l147 -49l-555 -1407z" />
<glyph unicode="0" d="M1133 623q0 -156 -43 -276t-116 -202t-170 -123.5t-206 -41.5q-100 0 -191.5 32.5t-161 106.5t-110.5 194.5t-41 298.5q0 154 43 273t116 199.5t170 122.5t206 42q98 0 188 -31.5t161 -104.5t113 -192.5t42 -297.5zM946 606q0 258 -91 378t-243 120q-63 0 -123.5 -28.5 t-106.5 -88t-73.5 -151t-27.5 -213.5q0 -260 91 -378t242 -118q63 0 124 27.5t107 86t73.5 149.5t27.5 216z" />
<glyph unicode="1" d="M217 156h377v878l-365 -235l-63 147l457 283h149v-1073h322v-156h-877v156z" />
<glyph unicode="2" d="M174 139l305 277q92 84 153.5 144.5t97.5 109.5t50.5 93t14.5 97q0 109 -63.5 172.5t-194.5 63.5q-92 0 -171 -34t-128 -75l-41 154q78 51 169 79.5t203 28.5q100 0 178 -27.5t130.5 -76.5t79 -115.5t26.5 -142.5q0 -66 -17.5 -124t-55.5 -117.5t-97 -123t-145 -139.5 l-252 -223l-8 -4q86 4 245.5 5t382.5 1v-162h-862v139z" />
<glyph unicode="3" d="M1018 266q0 -98 -42 -182t-117 -144.5t-180.5 -95t-234.5 -34.5q-63 0 -126.5 8t-114.5 22l20 160q53 -18 115.5 -29.5t128.5 -11.5q84 0 151.5 21.5t114.5 60.5t71.5 89t24.5 110q0 119 -86 189.5t-251 70.5q-53 0 -96.5 -1t-84.5 -3v139h43q223 0 334 66.5t111 195.5 q0 100 -70 153.5t-184 53.5q-86 0 -157 -21.5t-136 -56.5l-19 158q72 29 155 47t183 18q205 0 306.5 -91t101.5 -234q0 -123 -68.5 -206t-183.5 -118l-2 -2q63 -8 116.5 -37t92.5 -74t61.5 -101.5t22.5 -119.5z" />
<glyph unicode="4" d="M893 -170h-172v348h-623l-14 139l573 912h236v-893h240v-158h-240v-348zM721 1055l-461 -725q47 2 113.5 3t134 2t125.5 1h90v719h-2z" />
<glyph unicode="5" d="M1024 303q0 -104 -43 -194.5t-121 -157t-185.5 -104t-238.5 -37.5q-49 0 -111.5 5t-117.5 15l12 152q51 -14 115.5 -18.5t118.5 -4.5q92 0 163.5 25.5t121.5 68.5t76 100.5t26 122.5q0 135 -99.5 207t-271.5 72q-61 0 -116.5 -4t-94.5 -10v688h713v-166h-553v-367 q27 2 55 2h49q125 0 219.5 -31.5t157 -85t94 -126t31.5 -152.5z" />
<glyph unicode="6" d="M1077 469q0 -111 -33.5 -201t-94 -154.5t-145.5 -99t-190 -34.5q-217 0 -337.5 153.5t-120.5 429.5q0 223 51 381t141 259.5t214 148.5t269 47q31 0 63 -1t54 -5v-154q-31 4 -61.5 7t-71.5 3q-205 0 -318.5 -117.5t-154.5 -338.5q-4 -16 -9 -44t-9 -63h2q51 90 138 137 t189 47q100 0 180 -30.5t133.5 -85t82 -128t28.5 -157.5zM901 440q0 127 -69.5 206t-208.5 79q-66 0 -117 -25.5t-87 -65.5t-54.5 -88t-18.5 -93q0 -66 18.5 -125.5t54.5 -103.5t89 -70.5t123 -26.5q129 0 199.5 87t70.5 226z" />
<glyph unicode="7" d="M1063 1079q-158 -293 -291 -612.5t-207 -636.5h-198q86 332 216 644t281 589q-23 -2 -107.5 -3t-191.5 -1h-397v170h895v-150v0z" />
<glyph unicode="8" d="M850 1077q0 84 -58.5 135.5t-181.5 51.5q-119 0 -182 -57.5t-63 -141.5q0 -78 52 -132t131 -99.5t171 -87t171 -96t131 -127t52 -175.5q0 -88 -37 -155.5t-101.5 -114.5t-152.5 -72.5t-188 -25.5q-109 0 -189.5 25.5t-136 71.5t-83 108.5t-27.5 131.5q0 98 51 173 t128 134.5t167 109.5t167 102.5t128 109.5t51 131zM193 1049q0 78 30.5 143t87 112.5t136 73t178.5 25.5q193 0 299 -87t106 -226q0 -96 -51 -167t-128 -129.5t-167 -107.5t-167 -101.5t-128 -113.5t-51 -139q0 -90 73.5 -150.5t204.5 -60.5q55 0 105.5 14.5t88.5 40 t59.5 62t21.5 81.5q0 86 -52.5 144.5t-129 104.5t-167.5 86t-168 92.5t-129 124.5t-52 178z" />
<glyph unicode="9" d="M1063 674q0 -227 -55.5 -391t-151.5 -269.5t-226 -154.5t-282 -49q-41 0 -87 3t-87 11l16 158q45 -10 92.5 -15.5t92.5 -5.5q199 0 325.5 119t155.5 330q4 31 8 52t8 48h-2q-53 -74 -136 -117t-193 -43q-96 0 -171 31t-126 87t-78 134t-27 174q0 104 35 191.5t96.5 150 t146.5 97t187 34.5q98 0 182 -32.5t145.5 -102.5t96.5 -179t35 -261zM864 780q0 70 -19.5 129.5t-55 102.5t-87 67.5t-114.5 24.5q-61 0 -111.5 -23.5t-86.5 -64.5t-55.5 -97.5t-19.5 -119.5q0 -133 70 -213t195 -80q68 0 120 22.5t88.5 60.5t56 88t19.5 103z" />
<glyph unicode=":" d="M768 870q0 -66 -45 -110.5t-111 -44.5t-109.5 45t-43.5 110q0 66 44 110t109 44q66 0 111 -44t45 -110zM768 219q0 -63 -45 -108t-111 -45t-109.5 45t-43.5 108q0 66 44 111t109 45q66 0 111 -45t45 -111z" />
<glyph unicode=";" d="M786 70q2 -188 -119.5 -302t-342.5 -169l-33 110q80 23 132 51.5t84 59t45 61.5t13 60q0 78 -59 135q-31 31 -37 72.5t8.5 78.5t47 62.5t79.5 25.5t81 -20.5t56.5 -54t33.5 -77.5t11 -93zM768 870q0 -66 -45 -110.5t-111 -44.5t-109.5 45t-43.5 110q0 66 44 110t109 44 q66 0 111 -44t45 -110z" />
<glyph unicode="&#x3c;" d="M133 512l764 590l111 -115l-635 -473l637 -457l-113 -120z" />
<glyph unicode="=" d="M162 420h905v-144h-905v144zM162 764h905v-143h-905v143z" />
<glyph unicode="&#x3e;" d="M176 51l635 471l-635 457l113 123l764 -578l-764 -587z" />
<glyph unicode="?" d="M975 1073q0 -82 -35 -141.5t-85 -108.5t-103.5 -92t-92 -94t-52 -116.5t19.5 -155.5h-174q-37 98 -27 171.5t47 131t90 102.5t102.5 88t84 88t34.5 103q0 123 -120.5 186t-350.5 63l17 158q164 0 284.5 -30.5t200.5 -83t120 -122t40 -147.5zM682 109q0 -53 -38 -91 t-95 -38q-55 0 -93 37.5t-38 91.5q0 55 38 93t93 38q57 0 95 -38t38 -93z" />
<glyph unicode="@" d="M1165 807q0 -229 -82 -343t-211 -114q-80 0 -126 44t-50 118h-2q-6 -27 -20.5 -55.5t-37 -52t-53 -39t-67.5 -15.5q-78 0 -122 62.5t-44 214.5q0 86 15.5 161.5t49.5 131t89 88t133 32.5q49 0 92 -6t90 -16l-14 -393q-4 -78 22.5 -114t59.5 -36q59 0 97 73t38 249 q0 92 -21.5 178t-67.5 153.5t-117 107.5t-169 40q-96 0 -179 -46t-142.5 -130t-93 -200t-33.5 -255q0 -119 26.5 -217t77.5 -169t128 -109.5t177 -38.5q117 0 226 45v-138q-53 -18 -118 -28t-122 -10q-123 0 -223.5 46t-171 131t-109.5 205.5t-39 270.5q0 172 47 313 t128 242.5t190.5 158t236.5 56.5q125 0 221.5 -48t161 -129t97 -189.5t32.5 -229.5zM678 920q-4 4 -21.5 7t-40.5 3q-68 0 -99.5 -80t-31.5 -203q0 -102 17.5 -138t44.5 -36q23 0 44 22.5t39.5 63.5t30 97.5t13.5 121.5l4 142v0z" />
<glyph unicode="A" d="M895 324h-576l-114 -324h-178l485 1382h209l483 -1382h-198zM662 1024q-16 45 -27.5 88t-26.5 90h-2q-10 -45 -23.5 -88t-27.5 -84l-195 -563h492l-190 557v0z" />
<glyph unicode="B" d="M1087 412q0 -59 -23.5 -132t-84.5 -136.5t-166.5 -106.5t-267.5 -43q-63 0 -162 2l-197 4v1382q72 2 179.5 4.5t232.5 2.5q229 0 344 -88.5t115 -241.5q0 -55 -18.5 -106.5t-51.5 -94.5t-79 -74.5t-103 -48.5v-4q74 -12 128 -43t88 -74t50 -95t16 -107zM903 406 q0 70 -31.5 115.5t-85 73.5t-126 40t-154.5 12h-70q-20 0 -40.5 -1t-33.5 -1v-495q29 -4 79.5 -8.5t113.5 -4.5q176 0 262 76t86 193zM874 1028q0 47 -15 87t-52 68.5t-95.5 45t-144.5 16.5q-49 0 -104 -1t-101 -3v-459q31 -2 66 -2h76q176 0 273 65.5t97 182.5z" />
<glyph unicode="C" d="M1094 55q-76 -35 -162 -53t-195 -18q-164 0 -279.5 49t-188 138t-106.5 213t-34 273q0 158 36 293t114.5 233.5t201.5 155t295 56.5q86 0 159 -11.5t144 -29.5l-20 -162q-78 25 -147.5 37t-149.5 12q-121 0 -205 -44t-136 -118.5t-75.5 -176t-23.5 -216.5 q0 -260 107.5 -402.5t350.5 -142.5q78 0 157 19.5t138 52.5l19 -158v0z" />
<glyph unicode="D" d="M1151 707q0 -178 -50 -312.5t-143.5 -223.5t-228.5 -134t-305 -45q-53 0 -93 1t-76 3t-68.5 3t-69.5 1v1380q80 2 170 5.5t200 3.5q334 0 499 -164t165 -518zM965 694q0 270 -114 410.5t-380 140.5q-55 0 -96 -2l-82 -4v-1085q41 -6 75.5 -9.5t77.5 -3.5q250 0 384.5 133 t134.5 420z" />
<glyph unicode="E" d="M246 1382h755v-145h-579v-453h555v-143h-555v-494h579v-147h-755v1382z" />
<glyph unicode="F" d="M457 766h551v-141h-551v-625h-176v1382h755v-145h-579v-471z" />
<glyph unicode="G" d="M1075 1176q-88 35 -163.5 54t-168.5 19q-109 0 -197.5 -34.5t-152 -105.5t-99.5 -176.5t-36 -246.5q0 -266 115.5 -408.5t353.5 -142.5q70 0 115 10.5t100 28.5v528h176v-641q-102 -39 -202.5 -59t-213.5 -20q-311 0 -472.5 180t-161.5 502q0 160 43 295t130 233 t217 153.5t302 55.5q98 0 174 -15.5t168 -44.5l-27 -165v0z" />
<glyph unicode="H" d="M926 643h-621v-643h-176v1382h176v-589h621v589h174v-1382h-174v643z" />
<glyph unicode="I" d="M197 1382h835v-145h-330v-1090h330v-147h-835v147h329v1090h-329v145z" />
<glyph unicode="J" d="M952 410q0 -90 -29.5 -167t-89 -134.5t-148.5 -90t-208 -32.5q-55 0 -124.5 8t-123.5 22l23 156q51 -18 114.5 -27.5t116.5 -9.5q57 0 110.5 14.5t94.5 50.5t64.5 94t23.5 144v797h-516v147h692v-972v0z" />
<glyph unicode="K" d="M369 688v-688h-179v1382h179v-655l510 655h221l-545 -667l567 -715h-243z" />
<glyph unicode="L" d="M264 1382h176v-1235h629v-147h-805v1382z" />
<glyph unicode="M" d="M944 874q-6 104 -10 195.5t-4 144.5h-2q-12 -45 -29.5 -99t-34.5 -101l-209 -551h-125l-182 530q-16 51 -34.5 110.5t-30.5 110.5h-2q-2 -72 -4.5 -159.5t-6.5 -186.5l-47 -868h-153l88 1382h204l170 -487q18 -51 37 -107.5t31 -103.5h4q16 53 33.5 102.5t34.5 94.5 l188 501h205l96 -1382h-166z" />
<glyph unicode="N" d="M424 885q-41 78 -69.5 141.5t-59.5 134.5q2 -59 4 -147t4 -188.5t3 -202t1 -187.5v-436h-168v1382h232l426 -850q39 -78 74.5 -154.5t66.5 -148.5q-2 68 -5 163t-5 199.5t-3 209t-1 192.5v389h168v-1382h-228z" />
<glyph unicode="O" d="M1169 707q0 -172 -44 -307.5t-120.5 -228.5t-181 -142t-227.5 -49q-143 0 -245.5 50t-167 141t-94.5 219t-30 286q0 174 44 309t121 228.5t182.5 141.5t228.5 48q258 0 396 -178t138 -518zM981 684q0 272 -89 417.5t-276 145.5q-78 0 -144 -34.5t-116.5 -104.5t-79 -171 t-28.5 -235q0 -127 20.5 -230t63.5 -178t112.5 -116t167.5 -41q74 0 141.5 35t118 103.5t80 171t29.5 237.5z" />
<glyph unicode="P" d="M1075 979q0 -102 -43 -188t-118.5 -147.5t-177 -95.5t-220.5 -34q-33 0 -69.5 1t-65.5 5v-520h-176v1382q80 4 173 6.5t185 2.5q121 0 216 -30t161 -83t100.5 -130t34.5 -169zM891 963q0 135 -87 207.5t-259 72.5h-88q-43 0 -76 -2v-569q29 -4 64.5 -7t80.5 -3 q172 2 268.5 83t96.5 218z" />
<glyph unicode="Q" d="M1169 707q0 -172 -44 -307.5t-120.5 -228.5t-181 -142t-227.5 -49q-143 0 -245.5 50t-167 141t-94.5 219t-30 286q0 174 44 309t121 228.5t182.5 141.5t228.5 48q258 0 396 -178t138 -518zM981 684q0 272 -89 417.5t-276 145.5q-78 0 -144 -34.5t-116.5 -104.5t-79 -171 t-28.5 -235q0 -127 20.5 -230t63.5 -178t112.5 -116t167.5 -41q74 0 141.5 35t118 103.5t80 171t29.5 237.5zM1190 -375q-111 -18 -195 -5t-157.5 34.5t-146.5 37t-163 1.5v157q104 14 183.5 0t151 -34.5t148 -33.5t179.5 3v-160v0z" />
<glyph unicode="R" d="M395 625h-39v-625h-178v1382q70 4 164 6.5t205 2.5q100 0 189 -18.5t153.5 -61.5t102.5 -110.5t38 -166.5q0 -90 -36 -160.5t-97 -119.5t-141 -77t-168 -34q35 -37 64.5 -74t58.5 -71l411 -498h-229zM844 1010q0 129 -87 183t-241 54q-39 0 -85 -1t-75 -5v-479 q31 -2 68 -3t78 -1q158 0 250 69.5t92 182.5z" />
<glyph unicode="S" d="M1038 389q0 -88 -36.5 -162.5t-104.5 -129t-163 -85t-212 -30.5q-100 0 -188 13t-154 36l13 172q68 -29 158.5 -48.5t189.5 -19.5q143 0 227 58.5t84 168.5q0 80 -48 129.5t-122 85t-158 68.5t-157.5 80t-121.5 117.5t-48 185.5q0 80 32.5 148.5t95 119t150.5 78 t199 27.5q86 0 155.5 -6t128.5 -17l-10 -159q-57 16 -130 26t-154 10q-135 0 -210 -57t-75 -149q0 -78 49 -126.5t122 -84t159 -68.5t158.5 -80t121.5 -117.5t49 -183.5z" />
<glyph unicode="T" d="M702 0h-174v1237h-422v145h1016v-145h-420v-1237z" />
<glyph unicode="U" d="M1112 526q0 -270 -133 -408t-381 -138q-150 0 -243 40.5t-145 108.5t-70.5 155t-18.5 179v919h174v-905q0 -72 13.5 -136.5t49 -111.5t97 -74.5t157.5 -27.5q160 0 243 87t83 300v868h174v-856v0z" />
<glyph unicode="V" d="M502 0l-467 1382h196l297 -911q20 -59 43 -135t45 -154h2q20 74 43 147.5t52 155.5l303 897h182l-479 -1382h-217z" />
<glyph unicode="W" d="M840 0l-178 502q-16 47 -31 94t-25 82h-2q-10 -41 -24.5 -90t-30.5 -92l-168 -496h-209l-102 1382h163l60 -966q4 -66 8 -125.5t6 -124.5h2q14 57 32.5 116.5t35.5 110.5l172 508h129l192 -541q16 -43 33 -94t29 -100h4q0 104 6 201l59 1015h156l-98 -1382h-219z" />
<glyph unicode="X" d="M600 582l-352 -582h-205l451 713l-424 669h206l332 -536l324 536h201l-416 -661l463 -721h-219z" />
<glyph unicode="Y" d="M696 0h-174v500l-497 882h196l283 -514q68 -121 108 -211h4q18 47 46 100.5t51 94.5l299 530h192l-508 -882v-500z" />
<glyph unicode="Z" d="M137 129l623 928q31 47 58.5 88t60.5 84q-51 -2 -130 -3t-182 -1h-407v157h923v-133l-655 -966q-23 -31 -42 -63t-44 -62q35 4 125 4h625v-162h-955v129z" />
<glyph unicode="[" d="M379 1577h520v-131h-358v-1716h358v-136h-520v1983z" />
<glyph unicode="\" d="M240 1384l141 54l612 -1440l-143 -53z" />
<glyph unicode="]" d="M315 -270h361v1716h-361v131h523v-1983h-523v136z" />
<glyph unicode="^" d="M602 1249l-299 -549l-121 64l355 618h141l369 -616l-129 -66z" />
<glyph unicode="_" d="M0 -379h1229v-137h-1229v137z" />
<glyph unicode="`" d="M291 1380l76 133l399 -229l-59 -104z" />
<glyph unicode="a" d="M842 0q0 55 2 110.5t12 102.5h-4q-23 -49 -61.5 -91t-89 -74t-110 -50t-126.5 -18q-135 0 -217 66.5t-82 189.5q0 164 167 261t501 97v80q0 111 -57.5 168t-196.5 57q-80 0 -170.5 -21.5t-161.5 -64.5l-19 150q78 35 169 55t202 20q117 0 194.5 -24.5t125 -69.5 t68 -107.5t20.5 -136.5v-557q0 -78 4 -143h-170v0zM834 471q-152 0 -248.5 -17.5t-151.5 -46t-76.5 -66.5t-21.5 -77q0 -66 50 -105.5t128 -39.5q70 0 128 28.5t101 76.5t67 108.5t24 122.5v16v0z" />
<glyph unicode="b" d="M1096 557q0 -135 -41 -240.5t-115 -179.5t-175 -112.5t-224 -38.5q-104 0 -184.5 9t-161.5 32v1468h174v-446q0 -70 -5.5 -136.5t-15.5 -132.5l4 -2q43 129 134.5 193.5t213.5 64.5q88 0 161 -31.5t125 -92t81 -149.5t29 -206zM915 541q0 168 -68.5 260t-191.5 92 q-72 0 -125 -40t-88.5 -101.5t-54 -134t-18.5 -140.5v-327q80 -27 188 -27q74 0 139.5 23.5t114.5 73.5t76.5 130t27.5 191z" />
<glyph unicode="c" d="M1034 41q-70 -27 -167 -42t-193 -15q-102 0 -193.5 25.5t-160 83t-109.5 151.5t-41 231q0 125 38 227.5t109.5 176t178 114.5t241.5 41q76 0 152 -13t137 -36l-27 -149q-55 27 -128.5 42t-143.5 15q-86 0 -154.5 -28.5t-116.5 -80t-75 -123t-27 -159.5q0 -78 21.5 -144.5 t65.5 -118t110.5 -80t159.5 -28.5q78 0 157.5 14.5t141.5 40.5l24 -145v0z" />
<glyph unicode="d" d="M866 0q0 45 3 109.5t18 134.5l-4 2q-47 -131 -139.5 -197.5t-215.5 -66.5q-88 0 -160.5 30.5t-125 92t-81 150.5t-28.5 206q0 133 41 239.5t113.5 180t173 112.5t221.5 39q43 0 87 -3t91 -7v473h174v-1495h-168v0zM860 872q-47 12 -94 17.5t-94 5.5q-74 0 -139.5 -23.5 t-114.5 -73.5t-77 -130t-28 -191q0 -168 69 -260t191 -92q72 0 125.5 40t89 101.5t54 134t18.5 140.5v331v0z" />
<glyph unicode="e" d="M1059 596q0 -51 -4 -90h-731q-2 -6 -2 -23q0 -92 25.5 -161.5t72.5 -113.5t112.5 -64.5t145.5 -20.5q39 0 84 5t89 14.5t84 21.5t71 26l16 -143q-74 -31 -174 -48t-199 -17q-236 0 -371 127t-135 395q0 115 34 211t97.5 168.5t152.5 112.5t198 40q106 0 186 -35.5 t138.5 -97t84 -141.5t25.5 -166zM881 631q0 127 -76 199.5t-189 72.5q-53 0 -101 -18.5t-87 -54t-64.5 -86t-33.5 -113.5h551v0z" />
<glyph unicode="f" d="M1145 1337q-49 14 -106.5 22.5t-120.5 8.5q-119 0 -179.5 -65.5t-60.5 -217.5v-159h446v-140h-446v-786h-174v786h-395v140h395v161q0 221 112.5 320.5t309.5 99.5q59 0 119.5 -8t113.5 -20l-14 -142v0z" />
<glyph unicode="g" d="M907 889q39 -35 62.5 -89.5t23.5 -121.5q0 -82 -28.5 -151.5t-84 -120t-138.5 -79t-193 -28.5q-33 0 -70 2t-65 12q-66 -35 -66 -92q0 -43 46 -67.5t141 -24.5h208q166 0 255 -73.5t89 -211.5q0 -84 -41.5 -151.5t-115.5 -116.5t-176.5 -75.5t-223.5 -26.5 q-96 0 -176 18.5t-136 54t-87 90t-31 125.5q0 94 51.5 164t122.5 105q-47 23 -73.5 62.5t-26.5 90.5q0 49 27.5 96.5t81.5 79.5q-66 35 -109 111t-43 178q0 86 31 158t89 124t141 80.5t188 28.5q37 0 76.5 -6t76.5 -16h367v-129h-193v0zM821 666q0 115 -68.5 180t-187.5 65 t-189.5 -67.5t-70.5 -177.5q0 -113 69.5 -178.5t186.5 -65.5q119 0 189.5 66.5t70.5 177.5zM913 -178q0 162 -219 162h-258q-18 0 -30 2q-63 -29 -98.5 -80t-35.5 -113q0 -47 22.5 -81t60.5 -57.5t90.5 -34.5t111.5 -11q162 0 259 57.5t97 155.5z" />
<glyph unicode="h" d="M854 657q0 113 -38 175.5t-142 62.5q-66 0 -120 -35t-94 -93t-62.5 -136t-22.5 -164v-467h-172v1495h172v-469q0 -55 -2 -121.5t-13 -118.5l5 -2q43 123 134 188.5t222 65.5q86 0 145.5 -25.5t94 -69.5t50 -103.5t15.5 -126.5v-713h-172v657z" />
<glyph unicode="i" d="M195 137h383v748h-361v133h535v-881h342v-137h-899v137zM799 1337q0 -59 -42 -100t-102 -41q-59 0 -101 41t-42 100t42 101.5t101 42.5t101.5 -42.5t42.5 -101.5z" />
<glyph unicode="j" d="M911 -49q0 -242 -131 -357.5t-354 -115.5q-109 0 -188.5 27.5t-157.5 86.5l67 146q59 -49 130 -85t155 -36q68 0 124 17.5t96 55.5t61.5 99t21.5 150v940h-530v139h706v-1067v0zM952 1337q0 -59 -42 -100t-101 -41t-102 41t-43 100t43 101.5t102 42.5t101 -42.5 t42 -101.5z" />
<glyph unicode="k" d="M383 530v-530h-174v1495h174v-928l451 451h225l-481 -465l514 -553h-240z" />
<glyph unicode="l" d="M172 1362v133h549v-1358h375v-137h-924v137h377v1225h-377z" />
<glyph unicode="m" d="M971 670q0 121 -15.5 176t-72.5 55q-37 0 -72 -31.5t-63.5 -87t-46 -129t-17.5 -157.5v-496h-145v659q0 129 -19.5 185.5t-77.5 56.5q-37 0 -70.5 -31.5t-60 -87t-43 -129t-16.5 -157.5v-496h-148v1018h142q0 -57 -4 -114.5t-13 -121.5l2 -2q29 117 92.5 186.5 t161.5 69.5q96 0 137.5 -67.5t41.5 -184.5q29 115 92 183.5t162 68.5q111 0 155.5 -83t44.5 -242v-711h-147v670z" />
<glyph unicode="n" d="M854 657q0 113 -38 175.5t-142 62.5q-66 0 -120 -35t-94 -93t-62.5 -136t-22.5 -164v-467h-172v1018h166q0 -63 -2 -128t-13 -112l4 -2q45 125 137.5 193.5t225.5 68.5q86 0 145.5 -25.5t94 -69.5t50 -103.5t15.5 -126.5v-713h-172v657z" />
<glyph unicode="o" d="M1108 526q0 -115 -38 -214t-105.5 -172.5t-161.5 -115.5t-207 -42q-104 0 -191.5 30.5t-149.5 95t-97 162t-35 232.5q0 111 36 208t103.5 169.5t161.5 114.5t211 42q96 0 182 -27.5t150.5 -89t102.5 -159t38 -234.5zM928 516q0 180 -80 278.5t-230 98.5 q-59 0 -115.5 -22.5t-101.5 -68.5t-71.5 -117t-26.5 -167q0 -190 83 -290.5t230 -100.5q61 0 118 23.5t100 70.5t68.5 121t25.5 174z" />
<glyph unicode="p" d="M1096 557q0 -135 -40 -241.5t-113 -179.5t-173 -110.5t-223 -37.5q-49 0 -90 2t-88 10v-508h-174v1526h167q0 -45 -3 -109.5t-17 -134.5l4 -2q47 133 139.5 198.5t214.5 65.5q88 0 161 -30.5t125 -92t81 -150.5t29 -206zM915 541q0 168 -68.5 260t-191.5 92 q-72 0 -125 -40t-88.5 -101.5t-54 -134t-18.5 -140.5v-327q80 -27 188 -27q74 0 139.5 23.5t114.5 73.5t76.5 130t27.5 191z" />
<glyph unicode="q" d="M860 -31q0 72 5 138.5t16 134.5l-4 2q-45 -133 -136.5 -197.5t-210.5 -64.5q-88 0 -160.5 29.5t-124.5 90t-82 149.5t-30 208q0 135 41 241.5t114.5 180t175 112.5t224.5 39q92 0 179 -8t167 -20v-1512h-174v477zM860 872q-96 23 -188 23q-74 0 -139.5 -23.5 t-114.5 -73.5t-77 -130t-28 -191q0 -168 69 -260t189 -92q72 0 126.5 40t90 101.5t54 136t18.5 142.5v327v0z" />
<glyph unicode="r" d="M596 1018q0 -61 -3 -136t-18 -161l3 -2q49 147 148 234t251 87q86 0 170 -24l-39 -166q-72 33 -154 33q-84 0 -150.5 -42t-111.5 -110.5t-68.5 -159t-23.5 -188.5v-246h299v-137h-768v137h297v748h-297v133h465v0z" />
<glyph unicode="s" d="M1024 301q0 -84 -39 -144.5t-103.5 -100.5t-147.5 -58t-173 -18q-104 0 -194.5 12t-163.5 41l18 162q74 -35 163 -56.5t198 -21.5q47 0 92 9t81 28.5t57.5 49t21.5 70.5q0 63 -46.5 96t-115 53.5t-149.5 37t-149.5 47.5t-114.5 83t-46 146q0 63 27.5 118.5t83 96.5 t136.5 64.5t185 23.5q86 0 165 -9t140 -25l-20 -148q-74 25 -145.5 37t-155.5 12q-115 0 -172.5 -42t-57.5 -103q0 -59 46.5 -91t116 -52.5t150.5 -38t150.5 -48t115.5 -85t46 -146.5z" />
<glyph unicode="t" d="M1049 16q-61 -16 -142.5 -24t-144.5 -8q-158 0 -253 78.5t-95 265.5v551h-334v139h334v332l176 49v-381h446v-139h-446v-500q0 -137 62.5 -192.5t162.5 -55.5q51 0 111.5 7t107.5 22l15 -144v0z" />
<glyph unicode="u" d="M860 0q0 63 2 128t12 112l-4 2q-45 -125 -137 -193.5t-225 -68.5q-86 0 -145.5 25.5t-94.5 69.5t-50 103.5t-15 126.5v713h172v-658q0 -113 38 -175t142 -62q66 0 120 35t94 93t62.5 136t22.5 164v467h172v-1018h-166v0z" />
<glyph unicode="v" d="M516 0l-405 1018h194l254 -664q16 -45 29.5 -87t27.5 -89h2q14 45 26.5 88t29.5 84l258 668h186l-407 -1018h-195z" />
<glyph unicode="w" d="M813 0l-170 432q-10 27 -20.5 56.5t-18.5 64.5h-2q-8 -33 -18.5 -64.5t-20.5 -62.5l-157 -426h-195l-162 1018h168l100 -662q6 -41 11 -82l8 -81h2q12 41 24.5 77.5t24.5 71.5l156 424h131l172 -418q14 -35 28.5 -72.5t30.5 -85.5h2q4 47 7.5 85t9.5 81l88 662h168 l-162 -1018h-205z" />
<glyph unicode="x" d="M606 399l-309 -399h-213l422 512l-397 506h213l303 -391l301 391h198l-395 -504l414 -514h-225z" />
<glyph unicode="y" d="M653 -106q-47 -117 -91 -196t-93 -128t-111.5 -70.5t-146.5 -21.5q-29 0 -64.5 4t-66.5 10l16 156q61 -20 131 -21q43 0 76 12.5t61.5 42t55 79t57.5 124.5l47 115l-407 1018h196l226 -582q20 -51 39.5 -116.5t35.5 -118.5h4q16 53 42 130t61 163l203 524h190l-461 -1124 v0z" />
<glyph unicode="z" d="M197 121l610 749q-47 -2 -120 -3t-159 -1h-319v152h815v-121l-602 -745q20 0 54 1t74 2t81 1h401v-156h-835v121z" />
<glyph unicode="{" d="M899 -406q-109 0 -185.5 25t-124.5 74t-69.5 121.5t-21.5 171.5v370q0 59 -15.5 100.5t-52.5 68t-98.5 38.5t-151.5 17v139q92 2 153.5 14t98.5 37t51.5 67t14.5 103v248q0 86 18.5 156.5t63.5 123t122.5 81t196.5 28.5h76v-131h-66q-123 0 -187.5 -59.5t-64.5 -192.5 v-246q0 -135 -53 -206.5t-188 -90.5v-2q133 -16 187 -92t54 -209v-366q0 -137 65.5 -194.5t186.5 -57.5h66v-136h-76v0z" />
<glyph unicode="|" d="M567 1618h138v-2048h-138v2048z" />
<glyph unicode="}" d="M326 1577q219 0 311 -97.5t92 -293.5v-244q0 -59 15.5 -101t52.5 -67.5t97 -39t150 -15.5v-139q-92 -4 -153.5 -15.5t-97 -36t-50 -66.5t-14.5 -104v-374q0 -84 -18.5 -156t-64.5 -124t-124 -81t-196 -29h-76v134h65q125 0 188.5 59t63.5 193v370q0 135 53.5 207 t188.5 90v2q-133 16 -187.5 92t-54.5 209v242q0 137 -65.5 194.5t-186.5 57.5h-65v133h76v0z" />
<glyph unicode="~" d="M1102 543q-53 -53 -124 -89t-153 -36q-78 0 -135 20.5t-106 46t-97.5 46t-105.5 20.5q-66 0 -116 -29.5t-85 -58.5l-57 125q47 41 115.5 76.5t154.5 35.5q76 0 131.5 -20.5t102.5 -46t95 -46t114 -20.5q53 0 107 29t99 70l60 -123v0z" />
<glyph unicode="&#xa0;" />
<glyph unicode="&#xa1;" d="M547 655h143l29 -1083h-199zM752 909q0 -53 -38 -91t-93 -38t-93.5 38t-38.5 91q0 55 38 93t94 38q55 0 93 -38t38 -93z" />
<glyph unicode="&#xa2;" d="M1030 238q-57 -20 -117.5 -34t-117.5 -18v-196h-133v194q-106 2 -194.5 35t-152 96.5t-98.5 159.5t-35 227q0 113 35 207.5t98.5 163t151.5 111.5t195 53v152h133v-152q53 -2 118.5 -12.5t110.5 -30.5l-12 -145q-49 18 -106.5 30.5t-110.5 14.5v-758q115 6 223 53 l12 -151v0zM662 1090q-61 -6 -115.5 -34t-95.5 -74t-65 -111.5t-24 -147.5q0 -180 76 -274.5t224 -110.5v752v0z" />
<glyph unicode="&#xa3;" d="M205 131q125 88 189.5 176t64.5 213q0 20 -4 63.5t-11 100.5h-239v133h227q-8 61 -16 133t-8 125q0 100 27.5 171t78.5 116t123 65.5t160 20.5q47 0 100 -4t94 -12l-12 -144q-90 18 -176 19q-100 0 -161.5 -58.5t-61.5 -158.5q0 -47 8 -120t16 -153h354v-133h-340 q4 -43 6.5 -81t2.5 -66q0 -66 -12.5 -118t-37 -99.5t-63.5 -90.5t-92 -86q33 4 77 6.5t91 2.5h448v-152h-833v131z" />
<glyph unicode="&#xa4;" d="M1075 176l-127 -96l-166 221q-80 -49 -184 -49q-88 0 -143 27l-146 -199l-129 94l150 184q-39 47 -60.5 112t-21.5 157q0 160 92 258l-160 198l127 93l152 -207q74 37 170 37q41 0 84 -7.5t84 -29.5l153 207l125 -95l-162 -200q31 -41 50.5 -98.5t19.5 -143.5 q0 -76 -22.5 -139.5t-61.5 -110.5zM825 637q0 104 -49 172t-166 68q-88 0 -146 -63.5t-58 -180.5q0 -53 11 -98.5t35.5 -79t65.5 -53t100 -19.5q39 0 77 17.5t67 49t46 79t17 108.5z" />
<glyph unicode="&#xa5;" d="M1042 590v-119h-342v-145h342v-119h-342v-207h-174v207h-340v119h340v145h-340v119h295l-385 792h195l227 -491q29 -59 52.5 -117.5t45.5 -118.5h2q23 63 50.5 124t56.5 120l229 483h187l-393 -792h294z" />
<glyph unicode="&#xa6;" d="M545 262h139v-774h-139v774zM545 1536h139v-754h-139v754z" />
<glyph unicode="&#xa7;" d="M1032 360q0 -59 -14 -125.5t-41 -132t-63.5 -126t-82.5 -109.5q-66 -68 -145.5 -108t-200.5 -40q-39 0 -78.5 3.5t-74.5 9.5l8 153q35 -12 81 -18t89 -6q100 0 148.5 44t48.5 120q0 63 -38 121.5t-94.5 120t-122 128t-122 143t-94 168t-37.5 201.5q0 61 14 128t41 132.5 t63.5 126t81.5 109.5q63 70 144.5 110.5t189.5 40.5q41 0 84 -4t76 -10l-8 -143q-76 20 -166 20q-106 0 -151.5 -47t-45.5 -135q0 -61 38 -116.5t94.5 -114t123 -123t122.5 -141t94 -170t38 -210.5zM872 328q0 98 -32.5 176t-82.5 143.5t-109.5 122.5t-113 115.5t-93.5 122 t-50 141.5q-16 -47 -25.5 -98.5t-9.5 -100.5q0 -96 32 -172t80 -141.5t106.5 -122.5t111.5 -117.5t93 -127t55 -148.5q16 43 27 94.5t11 112.5z" />
<glyph unicode="&#xa8;" d="M516 1341q0 -49 -33.5 -82.5t-83.5 -33.5q-49 0 -83.5 33.5t-34.5 82.5t34.5 84t83.5 35t83 -35t34 -84zM948 1341q0 -49 -34.5 -82.5t-84.5 -33.5q-49 0 -82.5 33.5t-33.5 82.5t33.5 84t82.5 35t84 -35t35 -84z" />
<glyph unicode="&#xa9;" d="M614 1372q141 0 252 -53t189 -145.5t118.5 -216t40.5 -267.5q0 -141 -40.5 -266t-118.5 -218t-189.5 -146.5t-251.5 -53.5q-145 0 -256.5 52.5t-188.5 143.5t-116 216t-39 270q0 141 41 266t119 217.5t188.5 146.5t251.5 54zM614 1241q-111 0 -195.5 -43t-143 -117.5 t-88 -175t-29.5 -215.5t29.5 -215t88 -177t143.5 -121t195 -44q111 0 196 43t143.5 119t89 177t30.5 216q0 113 -30.5 213t-89 176t-143.5 120t-196 44zM817 360q-43 -16 -94 -25t-100 -9q-84 0 -144.5 26.5t-98.5 73.5t-55.5 111.5t-17.5 140.5q0 74 18.5 141.5t59.5 119.5 t107.5 84t162.5 32q41 0 80 -7.5t72 -17.5l-14 -123q-68 29 -142 29q-55 0 -93 -19.5t-61.5 -53.5t-32.5 -80t-9 -97q0 -113 44 -174t142 -61q84 0 160 28l16 -119v0z" />
<glyph unicode="&#xaa;" d="M772 653q0 25 2 60t8 69l-4 2q-41 -68 -117.5 -107.5t-162.5 -39.5q-121 0 -171.5 57.5t-50.5 134.5q0 51 28 98.5t85 84.5t147.5 58.5t213.5 21.5h22v32q0 31 -8 59.5t-29.5 51t-57.5 36t-91 13.5q-63 0 -128 -18.5t-118 -48.5l-21 122q63 29 138 44.5t147 15.5 q164 0 234.5 -74t70.5 -184v-293q0 -49 1 -101.5t1 -93.5h-139v0zM256 512h715v-137h-715v137zM743 991q-100 0 -162.5 -12t-98.5 -32.5t-49 -45t-13 -49.5q0 -47 31.5 -71.5t85.5 -24.5q55 0 98 20.5t73.5 52t47 69.5t16.5 73v20h-29z" />
<glyph unicode="&#xab;" d="M1008 174l-136 -74l-247 412l254 420l131 -74l-213 -344zM569 168l-135 -72l-229 416l235 422l131 -70l-194 -350z" />
<glyph unicode="&#xac;" d="M889 467h-744v143h895v-467h-151v324z" />
<glyph unicode="&#xae;" d="M1145 1014q0 -109 -42 -204t-115 -168t-169 -115t-205 -42q-113 0 -210 41t-167.5 113t-111.5 168t-41 207q0 109 42 205t113.5 167.5t168 112.5t206.5 41q113 0 209.5 -41t168 -111.5t112.5 -166.5t41 -207zM1006 1010q0 82 -31 154.5t-84 128t-124 87t-153 31.5 t-152.5 -30.5t-123.5 -85t-84 -126t-31 -153.5q0 -80 31 -152.5t84 -128t123.5 -87.5t152.5 -32t153 31t124 84t84 125t31 154zM561 973h-10v-236h-113v561h189q100 0 144 -39.5t44 -105.5q0 -72 -37 -113t-98 -53q20 -25 49 -72l109 -178h-142zM694 1139q0 37 -19.5 54 t-68.5 17h-55v-159h37q59 0 82.5 27.5t23.5 60.5z" />
<glyph unicode="&#xaf;" d="M379 1399h471v-131h-471v131z" />
<glyph unicode="&#xb0;" d="M985 1139q0 -84 -32.5 -151.5t-88 -115t-125 -72t-143.5 -24.5q-168 0 -266.5 95.5t-98.5 261.5q0 86 33 153.5t86 115.5t122 72.5t142 24.5q94 0 165 -28.5t116 -78t67.5 -114.5t22.5 -139zM829 1137q0 39 -11 81t-36.5 76.5t-68.5 56t-107 21.5q-92 0 -155.5 -63.5 t-63.5 -171.5q0 -111 60.5 -171.5t158.5 -60.5t160.5 64t62.5 168z" />
<glyph unicode="&#xb1;" d="M698 145h-163v416h-408v146h408v411h163v-411h410v-146h-410v-416zM135 25h965v-148h-965v148z" />
<glyph unicode="&#xb2;" d="M293 791l235 188q53 43 89 78t57.5 64.5t30 55t8.5 52.5q0 66 -44 101.5t-132 35.5q-57 0 -110.5 -15.5t-100.5 -39.5l-23 139q119 57 272 57q160 0 236 -68.5t76 -172.5q0 -80 -45 -156t-160 -168l-166 -133q47 2 91 3t93 1h228v-147h-635v125z" />
<glyph unicode="&#xb3;" d="M870 918q0 -59 -26.5 -108.5t-74.5 -85.5t-116.5 -56.5t-154.5 -20.5q-47 0 -97.5 7.5t-101.5 19.5l18 131q43 -16 92.5 -25.5t96.5 -9.5q84 0 139 38t55 103q0 31 -17 56.5t-57 42t-107.5 21.5t-166.5 -5v115q98 0 163 9t102.5 26.5t54 44t16.5 61.5q0 102 -149 102 q-51 0 -106.5 -12t-102.5 -41l-19 125q59 25 126 37t138 12q143 0 212 -57t69 -150q0 -72 -38 -120t-107 -74q74 -10 116.5 -65t42.5 -121z" />
<glyph unicode="&#xb4;" d="M461 1282l399 229l74 -131l-416 -200z" />
<glyph unicode="&#xb6;" d="M967 -197h-154v1440h-166v-1440h-151v834q-178 29 -260 127t-82 246q0 80 28.5 148.5t85 118.5t139 77.5t191.5 27.5h512v-139h-143v-1440z" />
<glyph unicode="&#xb7;" d="M786 602q0 -35 -13 -66.5t-36.5 -55t-54.5 -37t-68 -13.5t-67.5 13.5t-54 37t-37 55t-13.5 66.5q0 72 50.5 122t121.5 50q72 0 122 -50t50 -122z" />
<glyph unicode="&#x2219;" d="M786 602q0 -35 -13 -66.5t-36.5 -55t-54.5 -37t-68 -13.5t-67.5 13.5t-54 37t-37 55t-13.5 66.5q0 72 50.5 122t121.5 50q72 0 122 -50t50 -122z" />
<glyph unicode="&#xb8;" d="M754 -104q23 -49 28.5 -98.5t-12.5 -98.5t-64.5 -97t-130.5 -96l-77 72q98 74 115.5 153t-27.5 165h168v0z" />
<glyph unicode="&#xb9;" d="M295 1235l-31 139l336 121h141v-690h265v-139h-742v139h309v541z" />
<glyph unicode="&#xba;" d="M983 1032q0 -88 -28.5 -160.5t-81 -124t-125 -80t-158.5 -28.5q-186 0 -270 99.5t-84 279.5q0 92 32.5 162.5t87 120t123 75t142.5 25.5q174 0 268 -100.5t94 -268.5zM834 1022q0 49 -11.5 95t-38 82t-68.5 56.5t-104 20.5q-39 0 -79.5 -13.5t-73.5 -43t-53.5 -77.5 t-20.5 -118q0 -47 11.5 -93t37 -83t67.5 -59.5t103 -22.5q98 0 164 60.5t66 195.5zM256 512h715v-137h-715v137z" />
<glyph unicode="&#xbb;" d="M221 856l135 76l248 -414l-254 -418l-131 72l213 344zM659 862l136 72l229 -416l-236 -422l-131 70l195 350z" />
<glyph unicode="&#xbc;" d="M1079 -45h-145v160h-391l-4 98l327 524h213v-499h131v-123h-131v-160zM43 -35l924 1581l120 -63l-921 -1579zM229 1348l-182 -76l-14 139l225 84h131v-784h-160v637zM686 233q27 0 60.5 1.5t68.5 1.5h119v385z" />
<glyph unicode="&#xbd;" d="M33 -35l923 1581l119 -63l-921 -1579zM676 66l198 184q86 78 117 130t31 105q0 63 -35 100.5t-106 37.5q-47 0 -90 -13.5t-76 -34.5l-23 125q43 20 99.5 35t123.5 15q139 0 204 -62.5t65 -167.5q0 -80 -39 -150.5t-131 -154.5l-144 -131q68 4 154 4h193v-133h-541v111z M229 1348l-182 -76l-14 139l225 84h131v-784h-160v637z" />
<glyph unicode="&#xbe;" d="M1087 -45h-145v160h-391l-6 98l329 524h213v-499h132v-123h-132v-160zM84 -35l924 1581l120 -63l-923 -1579zM512 950q0 -115 -88 -183.5t-240 -68.5q-37 0 -72.5 4.5t-76.5 12.5l18 114q33 -10 68 -16t78 -6q68 0 113.5 33.5t45.5 99.5q0 61 -64.5 97t-219.5 16v108 q135 0 204.5 31t69.5 104q0 98 -121 99q-43 0 -83 -10.5t-78 -26.5l-19 115q100 37 215 36q115 0 175.5 -50t60.5 -146q0 -137 -142 -189q76 -10 116 -60.5t40 -113.5zM694 233q25 0 59.5 1.5t69.5 1.5h117v385z" />
<glyph unicode="&#xbf;" d="M905 -438q-164 2 -285.5 32.5t-201.5 83t-120 121t-40 148.5q0 82 35 141t85 107.5t104.5 92.5t93 95t52 116.5t-19.5 155.5h172q37 -100 27 -173.5t-47 -131t-89.5 -102.5t-101.5 -88t-83.5 -88t-34.5 -103q0 -123 120.5 -185.5t350.5 -62.5l-17 -159v0zM817 909 q0 -53 -38 -91t-93 -38q-57 0 -95 38t-38 91q0 55 38 93t95 38q55 0 93 -38t38 -93z" />
<glyph unicode="&#xc0;" d="M895 324h-576l-114 -324h-178l485 1382h209l483 -1382h-198zM662 1024q-16 45 -27.5 88t-26.5 90h-2q-10 -45 -23.5 -88t-27.5 -84l-195 -563h492l-190 557v0zM334 1745l-49 -121l424 -149l36 88z" />
<glyph unicode="&#xc1;" d="M895 324h-576l-114 -324h-178l485 1382h209l483 -1382h-198zM662 1024q-16 45 -27.5 88t-26.5 90h-2q-10 -45 -23.5 -88t-27.5 -84l-195 -563h492l-190 557v0zM520 1475l424 149l-49 121l-412 -182z" />
<glyph unicode="&#xc2;" d="M895 324h-576l-114 -324h-178l485 1382h209l483 -1382h-198zM662 1024q-16 45 -27.5 88t-26.5 90h-2q-10 -45 -23.5 -88t-27.5 -84l-195 -563h492l-190 557v0zM897 1483l51 90l-334 170l-323 -176l39 -82l282 135z" />
<glyph unicode="&#xc3;" d="M895 324h-576l-114 -324h-178l485 1382h209l483 -1382h-198zM662 1024q-16 45 -27.5 88t-26.5 90h-2q-10 -45 -23.5 -88t-27.5 -84l-195 -563h492l-190 557v0zM961 1602l-76 69q-25 -29 -55.5 -48t-71.5 -19q-39 0 -69 12t-60.5 27.5t-65.5 27.5t-84 12q-72 0 -123 -30.5 t-88 -85.5l76 -70q23 31 53.5 51.5t69.5 20.5t69.5 -12.5t60.5 -28t64.5 -27.5t86.5 -12q72 0 123 31t90 82z" />
<glyph unicode="&#xc4;" d="M895 324h-576l-114 -324h-178l485 1382h209l483 -1382h-198zM662 1024q-16 45 -27.5 88t-26.5 90h-2q-10 -45 -23.5 -88t-27.5 -84l-195 -563h492l-190 557v0zM836 1700q-45 0 -76 -31t-31 -76t31 -75.5t76 -30.5t75.5 30.5t30.5 75.5t-30.5 76t-75.5 31zM393 1700 q-45 0 -75.5 -31t-30.5 -76t30.5 -75.5t75.5 -30.5t76 30.5t31 75.5t-31 76t-76 31z" />
<glyph unicode="&#xc5;" d="M895 324h-576l-114 -324h-178l485 1382h209l483 -1382h-198zM662 1024q-16 45 -27.5 88t-26.5 90h-2q-10 -45 -23.5 -88t-27.5 -84l-195 -563h492l-190 557v0zM842 1499q0 96 -64.5 158.5t-163.5 62.5q-47 0 -88 -16t-71.5 -46t-49 -71t-18.5 -88q0 -96 65.5 -157.5 t161.5 -61.5q47 0 88 17.5t72 47t49.5 69.5t18.5 85zM727 1499q0 -47 -32.5 -82t-80.5 -35q-47 0 -79.5 35t-32.5 82t32.5 82t79.5 35t80 -35t33 -82z" />
<glyph unicode="&#xc6;" d="M674 338h-381l-143 -338h-168l604 1382h610v-145h-362v-453h344v-143h-344v-494h378v-147h-538v338zM672 1235q-23 -55 -49.5 -121.5t-55.5 -132.5l-213 -502h320v756h-2z" />
<glyph unicode="&#xc7;" d="M1094 55q-76 -35 -162 -53t-195 -18q-164 0 -279.5 49t-188 138t-106.5 213t-34 273q0 158 36 293t114.5 233.5t201.5 155t295 56.5q86 0 159 -11.5t144 -29.5l-20 -162q-78 25 -147.5 37t-149.5 12q-121 0 -205 -44t-136 -118.5t-75.5 -176t-23.5 -216.5 q0 -260 107.5 -402.5t350.5 -142.5q78 0 157 19.5t138 52.5l19 -158v0zM754 -104q23 -49 28.5 -98.5t-12.5 -98.5t-64.5 -97t-130.5 -96l-77 72q98 74 115.5 153t-27.5 165h168v0z" />
<glyph unicode="&#xc8;" d="M246 1382h755v-145h-579v-453h555v-143h-555v-494h579v-147h-755v1382zM334 1745l-49 -121l424 -149l36 88z" />
<glyph unicode="&#xc9;" d="M246 1382h755v-145h-579v-453h555v-143h-555v-494h579v-147h-755v1382zM520 1475l424 149l-49 121l-412 -182z" />
<glyph unicode="&#xca;" d="M246 1382h755v-145h-579v-453h555v-143h-555v-494h579v-147h-755v1382zM897 1483l51 90l-334 170l-323 -176l39 -82l282 135z" />
<glyph unicode="&#xcb;" d="M246 1382h755v-145h-579v-453h555v-143h-555v-494h579v-147h-755v1382zM836 1700q-45 0 -76 -31t-31 -76t31 -75.5t76 -30.5t75.5 30.5t30.5 75.5t-30.5 76t-75.5 31zM393 1700q-45 0 -75.5 -31t-30.5 -76t30.5 -75.5t75.5 -30.5t76 30.5t31 75.5t-31 76t-76 31z" />
<glyph unicode="&#xcc;" d="M197 1382h835v-145h-330v-1090h330v-147h-835v147h329v1090h-329v145zM334 1745l-49 -121l424 -149l36 88z" />
<glyph unicode="&#xcd;" d="M197 1382h835v-145h-330v-1090h330v-147h-835v147h329v1090h-329v145zM520 1475l424 149l-49 121l-412 -182z" />
<glyph unicode="&#xce;" d="M197 1382h835v-145h-330v-1090h330v-147h-835v147h329v1090h-329v145zM897 1483l51 90l-334 170l-323 -176l39 -82l282 135z" />
<glyph unicode="&#xcf;" d="M197 1382h835v-145h-330v-1090h330v-147h-835v147h329v1090h-329v145zM836 1700q-45 0 -76 -31t-31 -76t31 -75.5t76 -30.5t75.5 30.5t30.5 75.5t-30.5 76t-75.5 31zM393 1700q-45 0 -75.5 -31t-30.5 -76t30.5 -75.5t75.5 -30.5t76 30.5t31 75.5t-31 76t-76 31z" />
<glyph unicode="&#xd0;" d="M1153 707q0 -178 -47 -312.5t-136 -223.5t-219 -134t-294 -45q-53 0 -92 1t-73 3t-63.5 3t-60.5 1v633h-133v139h133v608q70 2 156 5.5t196 3.5q326 0 479.5 -165t153.5 -517zM967 694q0 270 -106.5 410.5t-356.5 140.5q-57 0 -94 -2t-64 -4v-467h205v-139h-205v-479 q29 -6 58.5 -9.5t74.5 -3.5q240 0 364 133t124 420z" />
<glyph unicode="&#xd1;" d="M424 885q-41 78 -69.5 141.5t-59.5 134.5q2 -59 4 -147t4 -188.5t3 -202t1 -187.5v-436h-168v1382h232l426 -850q39 -78 74.5 -154.5t66.5 -148.5q-2 68 -5 163t-5 199.5t-3 209t-1 192.5v389h168v-1382h-228zM961 1602l-76 69q-25 -29 -55.5 -48t-71.5 -19q-39 0 -69 12 t-60.5 27.5t-65.5 27.5t-84 12q-72 0 -123 -30.5t-88 -85.5l76 -70q23 31 53.5 51.5t69.5 20.5t69.5 -12.5t60.5 -28t64.5 -27.5t86.5 -12q72 0 123 31t90 82z" />
<glyph unicode="&#xd2;" d="M1169 707q0 -172 -44 -307.5t-120.5 -228.5t-181 -142t-227.5 -49q-143 0 -245.5 50t-167 141t-94.5 219t-30 286q0 174 44 309t121 228.5t182.5 141.5t228.5 48q258 0 396 -178t138 -518zM981 684q0 272 -89 417.5t-276 145.5q-78 0 -144 -34.5t-116.5 -104.5t-79 -171 t-28.5 -235q0 -127 20.5 -230t63.5 -178t112.5 -116t167.5 -41q74 0 141.5 35t118 103.5t80 171t29.5 237.5zM334 1745l-49 -121l424 -149l36 88z" />
<glyph unicode="&#xd3;" d="M1169 707q0 -172 -44 -307.5t-120.5 -228.5t-181 -142t-227.5 -49q-143 0 -245.5 50t-167 141t-94.5 219t-30 286q0 174 44 309t121 228.5t182.5 141.5t228.5 48q258 0 396 -178t138 -518zM981 684q0 272 -89 417.5t-276 145.5q-78 0 -144 -34.5t-116.5 -104.5t-79 -171 t-28.5 -235q0 -127 20.5 -230t63.5 -178t112.5 -116t167.5 -41q74 0 141.5 35t118 103.5t80 171t29.5 237.5zM520 1475l424 149l-49 121l-412 -182z" />
<glyph unicode="&#xd4;" d="M1169 707q0 -172 -44 -307.5t-120.5 -228.5t-181 -142t-227.5 -49q-143 0 -245.5 50t-167 141t-94.5 219t-30 286q0 174 44 309t121 228.5t182.5 141.5t228.5 48q258 0 396 -178t138 -518zM981 684q0 272 -89 417.5t-276 145.5q-78 0 -144 -34.5t-116.5 -104.5t-79 -171 t-28.5 -235q0 -127 20.5 -230t63.5 -178t112.5 -116t167.5 -41q74 0 141.5 35t118 103.5t80 171t29.5 237.5zM897 1483l51 90l-334 170l-323 -176l39 -82l282 135z" />
<glyph unicode="&#xd5;" d="M1169 707q0 -172 -44 -307.5t-120.5 -228.5t-181 -142t-227.5 -49q-143 0 -245.5 50t-167 141t-94.5 219t-30 286q0 174 44 309t121 228.5t182.5 141.5t228.5 48q258 0 396 -178t138 -518zM981 684q0 272 -89 417.5t-276 145.5q-78 0 -144 -34.5t-116.5 -104.5t-79 -171 t-28.5 -235q0 -127 20.5 -230t63.5 -178t112.5 -116t167.5 -41q74 0 141.5 35t118 103.5t80 171t29.5 237.5zM961 1602l-76 69q-25 -29 -55.5 -48t-71.5 -19q-39 0 -69 12t-60.5 27.5t-65.5 27.5t-84 12q-72 0 -123 -30.5t-88 -85.5l76 -70q23 31 53.5 51.5t69.5 20.5 t69.5 -12.5t60.5 -28t64.5 -27.5t86.5 -12q72 0 123 31t90 82z" />
<glyph unicode="&#xd6;" d="M1169 707q0 -172 -44 -307.5t-120.5 -228.5t-181 -142t-227.5 -49q-143 0 -245.5 50t-167 141t-94.5 219t-30 286q0 174 44 309t121 228.5t182.5 141.5t228.5 48q258 0 396 -178t138 -518zM981 684q0 272 -89 417.5t-276 145.5q-78 0 -144 -34.5t-116.5 -104.5t-79 -171 t-28.5 -235q0 -127 20.5 -230t63.5 -178t112.5 -116t167.5 -41q74 0 141.5 35t118 103.5t80 171t29.5 237.5zM836 1700q-45 0 -76 -31t-31 -76t31 -75.5t76 -30.5t75.5 30.5t30.5 75.5t-30.5 76t-75.5 31zM393 1700q-45 0 -75.5 -31t-30.5 -76t30.5 -75.5t75.5 -30.5 t76 30.5t31 75.5t-31 76t-76 31z" />
<glyph unicode="&#xd7;" d="M1067 164l-104 -107l-355 353l-350 -349l-94 95l348 350l-350 354l104 105l352 -353l353 351l96 -97l-352 -348z" />
<glyph unicode="&#xd8;" d="M901 1337q127 -76 197.5 -229.5t70.5 -400.5q0 -172 -44 -307.5t-120.5 -228.5t-181 -142t-227.5 -49q-90 0 -162 26l-78 -217l-123 41l78 223q-131 78 -191.5 238t-60.5 385q0 174 44 309t121 228.5t182.5 141.5t228.5 48q82 0 143 -25l74 207l123 -41l-74 -207v0z M483 158q31 -14 65 -20.5t68 -6.5q76 0 143.5 36t118 106.5t79 174t28.5 236.5q0 174 -38 292t-103 181l-361 -999v0zM731 1233q-31 12 -60.5 16t-58.5 4q-78 0 -145.5 -36.5t-116.5 -106.5t-77.5 -173t-28.5 -235q0 -322 131 -464l356 995v0z" />
<glyph unicode="&#xd9;" d="M1112 526q0 -270 -133 -408t-381 -138q-150 0 -243 40.5t-145 108.5t-70.5 155t-18.5 179v919h174v-905q0 -72 13.5 -136.5t49 -111.5t97 -74.5t157.5 -27.5q160 0 243 87t83 300v868h174v-856v0zM334 1745l-49 -121l424 -149l36 88z" />
<glyph unicode="&#xda;" d="M1112 526q0 -270 -133 -408t-381 -138q-150 0 -243 40.5t-145 108.5t-70.5 155t-18.5 179v919h174v-905q0 -72 13.5 -136.5t49 -111.5t97 -74.5t157.5 -27.5q160 0 243 87t83 300v868h174v-856v0zM520 1475l424 149l-49 121l-412 -182z" />
<glyph unicode="&#xdb;" d="M1112 526q0 -270 -133 -408t-381 -138q-150 0 -243 40.5t-145 108.5t-70.5 155t-18.5 179v919h174v-905q0 -72 13.5 -136.5t49 -111.5t97 -74.5t157.5 -27.5q160 0 243 87t83 300v868h174v-856v0zM897 1483l51 90l-334 170l-323 -176l39 -82l282 135z" />
<glyph unicode="&#xdc;" d="M1112 526q0 -270 -133 -408t-381 -138q-150 0 -243 40.5t-145 108.5t-70.5 155t-18.5 179v919h174v-905q0 -72 13.5 -136.5t49 -111.5t97 -74.5t157.5 -27.5q160 0 243 87t83 300v868h174v-856v0zM836 1700q-45 0 -76 -31t-31 -76t31 -75.5t76 -30.5t75.5 30.5t30.5 75.5 t-30.5 76t-75.5 31zM393 1700q-45 0 -75.5 -31t-30.5 -76t30.5 -75.5t75.5 -30.5t76 30.5t31 75.5t-31 76t-76 31z" />
<glyph unicode="&#xdd;" d="M696 0h-174v500l-497 882h196l283 -514q68 -121 108 -211h4q18 47 46 100.5t51 94.5l299 530h192l-508 -882v-500zM520 1475l424 149l-49 121l-412 -182z" />
<glyph unicode="&#xde;" d="M1053 743q0 -100 -42 -184t-115 -145.5t-172 -95t-216 -33.5q-29 0 -63.5 1t-63.5 5v-291h-176v1382h176v-237q41 2 86 2h88q117 0 210 -28.5t156.5 -82t97.5 -127.5t34 -166zM868 725q0 133 -85 204.5t-251 71.5h-81q-39 0 -70 -4v-557q47 -8 129 -8q170 2 264 80 t94 213z" />
<glyph unicode="&#xdf;" d="M1108 303q0 -70 -27.5 -129t-80 -102t-127 -67.5t-166.5 -24.5q-59 0 -108.5 6t-88.5 16l8 154q41 -16 91 -25.5t98 -9.5q121 0 173 49t52 111q0 55 -30 93t-75 66.5t-96 56t-96 65.5t-75 91.5t-30 132.5q0 92 45.5 145.5t99.5 93.5t99 83t45 115q0 78 -55 115.5 t-143 37.5q-127 0 -202 -81t-75 -259v-1036h-170v1026q0 131 36 224t98.5 150.5t145.5 84t177 26.5q176 0 270 -76.5t94 -195.5q0 -70 -21.5 -116t-54 -78.5t-69.5 -56t-69.5 -49.5t-54 -56.5t-21.5 -77.5q0 -53 29.5 -90t74.5 -65.5t97 -57.5t97.5 -67t75 -91t29.5 -131z " />
<glyph unicode="&#xe0;" d="M842 0q0 55 2 110.5t12 102.5h-4q-23 -49 -61.5 -91t-89 -74t-110 -50t-126.5 -18q-135 0 -217 66.5t-82 189.5q0 164 167 261t501 97v80q0 111 -57.5 168t-196.5 57q-80 0 -170.5 -21.5t-161.5 -64.5l-19 150q78 35 169 55t202 20q117 0 194.5 -24.5t125 -69.5 t68 -107.5t20.5 -136.5v-557q0 -78 4 -143h-170v0zM834 471q-152 0 -248.5 -17.5t-151.5 -46t-76.5 -66.5t-21.5 -77q0 -66 50 -105.5t128 -39.5q70 0 128 28.5t101 76.5t67 108.5t24 122.5v16v0zM291 1380l76 133l399 -229l-59 -104z" />
<glyph unicode="&#xe1;" d="M842 0q0 55 2 110.5t12 102.5h-4q-23 -49 -61.5 -91t-89 -74t-110 -50t-126.5 -18q-135 0 -217 66.5t-82 189.5q0 164 167 261t501 97v80q0 111 -57.5 168t-196.5 57q-80 0 -170.5 -21.5t-161.5 -64.5l-19 150q78 35 169 55t202 20q117 0 194.5 -24.5t125 -69.5 t68 -107.5t20.5 -136.5v-557q0 -78 4 -143h-170v0zM834 471q-152 0 -248.5 -17.5t-151.5 -46t-76.5 -66.5t-21.5 -77q0 -66 50 -105.5t128 -39.5q70 0 128 28.5t101 76.5t67 108.5t24 122.5v16v0zM461 1282l399 229l74 -131l-416 -200z" />
<glyph unicode="&#xe2;" d="M842 0q0 55 2 110.5t12 102.5h-4q-23 -49 -61.5 -91t-89 -74t-110 -50t-126.5 -18q-135 0 -217 66.5t-82 189.5q0 164 167 261t501 97v80q0 111 -57.5 168t-196.5 57q-80 0 -170.5 -21.5t-161.5 -64.5l-19 150q78 35 169 55t202 20q117 0 194.5 -24.5t125 -69.5 t68 -107.5t20.5 -136.5v-557q0 -78 4 -143h-170v0zM834 471q-152 0 -248.5 -17.5t-151.5 -46t-76.5 -66.5t-21.5 -77q0 -66 50 -105.5t128 -39.5q70 0 128 28.5t101 76.5t67 108.5t24 122.5v16v0zM610 1331l-241 -143l-62 100l309 193l320 -189l-68 -104z" />
<glyph unicode="&#xe3;" d="M842 0q0 55 2 110.5t12 102.5h-4q-23 -49 -61.5 -91t-89 -74t-110 -50t-126.5 -18q-135 0 -217 66.5t-82 189.5q0 164 167 261t501 97v80q0 111 -57.5 168t-196.5 57q-80 0 -170.5 -21.5t-161.5 -64.5l-19 150q78 35 169 55t202 20q117 0 194.5 -24.5t125 -69.5 t68 -107.5t20.5 -136.5v-557q0 -78 4 -143h-170v0zM834 471q-152 0 -248.5 -17.5t-151.5 -46t-76.5 -66.5t-21.5 -77q0 -66 50 -105.5t128 -39.5q70 0 128 28.5t101 76.5t67 108.5t24 122.5v16v0zM958 1303q-33 -31 -86 -55.5t-112 -24.5q-55 0 -94 15t-73 32.5t-66.5 33 t-77.5 15.5q-41 0 -76 -18.5t-64 -49.5l-45 117q41 37 91.5 60.5t109.5 23.5q53 0 91 -15.5t72 -33t66.5 -32.5t75.5 -15t80 18.5t65 46.5l43 -118v0z" />
<glyph unicode="&#xe4;" d="M842 0q0 55 2 110.5t12 102.5h-4q-23 -49 -61.5 -91t-89 -74t-110 -50t-126.5 -18q-135 0 -217 66.5t-82 189.5q0 164 167 261t501 97v80q0 111 -57.5 168t-196.5 57q-80 0 -170.5 -21.5t-161.5 -64.5l-19 150q78 35 169 55t202 20q117 0 194.5 -24.5t125 -69.5 t68 -107.5t20.5 -136.5v-557q0 -78 4 -143h-170v0zM834 471q-152 0 -248.5 -17.5t-151.5 -46t-76.5 -66.5t-21.5 -77q0 -66 50 -105.5t128 -39.5q70 0 128 28.5t101 76.5t67 108.5t24 122.5v16v0zM516 1341q0 -49 -33.5 -82.5t-83.5 -33.5q-49 0 -83.5 33.5t-34.5 82.5 t34.5 84t83.5 35t83 -35t34 -84zM948 1341q0 -49 -34.5 -82.5t-84.5 -33.5q-49 0 -82.5 33.5t-33.5 82.5t33.5 84t82.5 35t84 -35t35 -84z" />
<glyph unicode="&#xe5;" d="M842 0q0 55 2 110.5t12 102.5h-4q-23 -49 -61.5 -91t-89 -74t-110 -50t-126.5 -18q-135 0 -217 66.5t-82 189.5q0 164 167 261t501 97v80q0 111 -57.5 168t-196.5 57q-80 0 -170.5 -21.5t-161.5 -64.5l-19 150q78 35 169 55t202 20q117 0 194.5 -24.5t125 -69.5 t68 -107.5t20.5 -136.5v-557q0 -78 4 -143h-170v0zM834 471q-152 0 -248.5 -17.5t-151.5 -46t-76.5 -66.5t-21.5 -77q0 -66 50 -105.5t128 -39.5q70 0 128 28.5t101 76.5t67 108.5t24 122.5v16v0zM842 1335q0 -45 -18.5 -85t-49.5 -69.5t-71.5 -47t-88.5 -17.5 q-96 0 -161.5 61.5t-65.5 157.5q0 47 18.5 88t49 71t71.5 46t88 16q98 0 163 -62.5t65 -158.5zM727 1335q0 47 -32.5 82t-80.5 35q-47 0 -79.5 -35t-32.5 -82t32.5 -81.5t79.5 -34.5t80 34.5t33 81.5z" />
<glyph unicode="&#xe6;" d="M1208 559q0 -20 -2 -47h-534q-6 -203 57.5 -296t190.5 -93q61 0 124.5 12t116.5 33l13 -145q-119 -41 -275 -41q-74 0 -131 18t-97 49t-65.5 73t-38.5 89l-2 -2q-14 -41 -39.5 -82t-63.5 -74t-87 -52t-113 -19q-106 0 -172.5 63.5t-66.5 185.5q0 166 130 264.5t363 98.5 v80q0 104 -42 164.5t-138 60.5q-66 0 -128.5 -18.5t-117.5 -51.5l-12 152q59 27 132 42t150 15q86 0 155 -37.5t101 -117.5h2q41 68 108 110.5t153 42.5q90 0 152.5 -35.5t102.5 -96t57 -140.5t17 -168v-37zM516 471q-102 0 -166.5 -19.5t-101.5 -50t-51.5 -68.5t-14.5 -77 q0 -63 32 -100t91 -37q51 0 91 28.5t66.5 75.5t40 107.5t13.5 124.5v16v0zM1047 637q4 127 -45.5 196.5t-129.5 69.5q-76 0 -132 -68.5t-64 -197.5h371v0z" />
<glyph unicode="&#xe7;" d="M1034 41q-70 -27 -167 -42t-193 -15q-102 0 -193.5 25.5t-160 83t-109.5 151.5t-41 231q0 125 38 227.5t109.5 176t178 114.5t241.5 41q76 0 152 -13t137 -36l-27 -149q-55 27 -128.5 42t-143.5 15q-86 0 -154.5 -28.5t-116.5 -80t-75 -123t-27 -159.5q0 -78 21.5 -144.5 t65.5 -118t110.5 -80t159.5 -28.5q78 0 157.5 14.5t141.5 40.5l24 -145v0zM754 -104q23 -49 28.5 -98.5t-12.5 -98.5t-64.5 -97t-130.5 -96l-77 72q98 74 115.5 153t-27.5 165h168v0z" />
<glyph unicode="&#xe8;" d="M1059 596q0 -51 -4 -90h-731q-2 -6 -2 -23q0 -92 25.5 -161.5t72.5 -113.5t112.5 -64.5t145.5 -20.5q39 0 84 5t89 14.5t84 21.5t71 26l16 -143q-74 -31 -174 -48t-199 -17q-236 0 -371 127t-135 395q0 115 34 211t97.5 168.5t152.5 112.5t198 40q106 0 186 -35.5 t138.5 -97t84 -141.5t25.5 -166zM881 631q0 127 -76 199.5t-189 72.5q-53 0 -101 -18.5t-87 -54t-64.5 -86t-33.5 -113.5h551v0zM291 1380l76 133l399 -229l-59 -104z" />
<glyph unicode="&#xe9;" d="M1059 596q0 -51 -4 -90h-731q-2 -6 -2 -23q0 -92 25.5 -161.5t72.5 -113.5t112.5 -64.5t145.5 -20.5q39 0 84 5t89 14.5t84 21.5t71 26l16 -143q-74 -31 -174 -48t-199 -17q-236 0 -371 127t-135 395q0 115 34 211t97.5 168.5t152.5 112.5t198 40q106 0 186 -35.5 t138.5 -97t84 -141.5t25.5 -166zM881 631q0 127 -76 199.5t-189 72.5q-53 0 -101 -18.5t-87 -54t-64.5 -86t-33.5 -113.5h551v0zM461 1282l399 229l74 -131l-416 -200z" />
<glyph unicode="&#xea;" d="M1059 596q0 -51 -4 -90h-731q-2 -6 -2 -23q0 -92 25.5 -161.5t72.5 -113.5t112.5 -64.5t145.5 -20.5q39 0 84 5t89 14.5t84 21.5t71 26l16 -143q-74 -31 -174 -48t-199 -17q-236 0 -371 127t-135 395q0 115 34 211t97.5 168.5t152.5 112.5t198 40q106 0 186 -35.5 t138.5 -97t84 -141.5t25.5 -166zM881 631q0 127 -76 199.5t-189 72.5q-53 0 -101 -18.5t-87 -54t-64.5 -86t-33.5 -113.5h551v0zM610 1331l-241 -143l-62 100l309 193l320 -189l-68 -104z" />
<glyph unicode="&#xeb;" d="M1059 596q0 -51 -4 -90h-731q-2 -6 -2 -23q0 -92 25.5 -161.5t72.5 -113.5t112.5 -64.5t145.5 -20.5q39 0 84 5t89 14.5t84 21.5t71 26l16 -143q-74 -31 -174 -48t-199 -17q-236 0 -371 127t-135 395q0 115 34 211t97.5 168.5t152.5 112.5t198 40q106 0 186 -35.5 t138.5 -97t84 -141.5t25.5 -166zM881 631q0 127 -76 199.5t-189 72.5q-53 0 -101 -18.5t-87 -54t-64.5 -86t-33.5 -113.5h551v0zM516 1341q0 -49 -33.5 -82.5t-83.5 -33.5q-49 0 -83.5 33.5t-34.5 82.5t34.5 84t83.5 35t83 -35t34 -84zM948 1341q0 -49 -34.5 -82.5 t-84.5 -33.5q-49 0 -82.5 33.5t-33.5 82.5t33.5 84t82.5 35t84 -35t35 -84z" />
<glyph unicode="&#xec;" d="M219 885v133h535v-881h342v-137h-899v137h383v748h-361zM291 1380l76 133l399 -229l-59 -104z" />
<glyph unicode="&#xed;" d="M219 885v133h535v-881h342v-137h-899v137h383v748h-361zM461 1282l399 229l74 -131l-416 -200z" />
<glyph unicode="&#xee;" d="M219 885v133h535v-881h342v-137h-899v137h383v748h-361zM610 1331l-241 -143l-62 100l309 193l320 -189l-68 -104z" />
<glyph unicode="&#xef;" d="M219 885v133h535v-881h342v-137h-899v137h383v748h-361zM516 1341q0 -49 -33.5 -82.5t-83.5 -33.5q-49 0 -83.5 33.5t-34.5 82.5t34.5 84t83.5 35t83 -35t34 -84zM948 1341q0 -49 -34.5 -82.5t-84.5 -33.5q-49 0 -82.5 33.5t-33.5 82.5t33.5 84t82.5 35t84 -35t35 -84z " />
<glyph unicode="&#xf0;" d="M1055 598q0 -168 -39 -285.5t-105.5 -191.5t-153.5 -106.5t-184 -32.5q-213 0 -328.5 130t-115.5 353q0 133 38 233.5t102.5 168t150.5 102.5t182 35q84 0 152.5 -26t113.5 -85q-35 119 -74.5 201t-101.5 147l-211 -133l-92 92l189 117q-49 31 -106.5 47t-125.5 16 q-29 0 -55.5 -3t-52.5 -7v137q16 2 41.5 4t56.5 2q104 0 196.5 -23.5t169.5 -72.5l187 117l92 -92l-166 -109q115 -111 177.5 -292t62.5 -443zM879 553q0 143 -63.5 228t-207.5 85q-61 0 -116.5 -21.5t-96.5 -69.5t-65.5 -122.5t-24.5 -181.5q0 -80 21.5 -143.5t58.5 -108.5 t89 -67.5t114 -22.5q152 2 221.5 110.5t69.5 313.5z" />
<glyph unicode="&#xf1;" d="M854 657q0 113 -38 175.5t-142 62.5q-66 0 -120 -35t-94 -93t-62.5 -136t-22.5 -164v-467h-172v1018h166q0 -63 -2 -128t-13 -112l4 -2q45 125 137.5 193.5t225.5 68.5q86 0 145.5 -25.5t94 -69.5t50 -103.5t15.5 -126.5v-713h-172v657zM958 1303q-33 -31 -86 -55.5 t-112 -24.5q-55 0 -94 15t-73 32.5t-66.5 33t-77.5 15.5q-41 0 -76 -18.5t-64 -49.5l-45 117q41 37 91.5 60.5t109.5 23.5q53 0 91 -15.5t72 -33t66.5 -32.5t75.5 -15t80 18.5t65 46.5l43 -118v0z" />
<glyph unicode="&#xf2;" d="M1108 526q0 -115 -38 -214t-105.5 -172.5t-161.5 -115.5t-207 -42q-104 0 -191.5 30.5t-149.5 95t-97 162t-35 232.5q0 111 36 208t103.5 169.5t161.5 114.5t211 42q96 0 182 -27.5t150.5 -89t102.5 -159t38 -234.5zM928 516q0 180 -80 278.5t-230 98.5 q-59 0 -115.5 -22.5t-101.5 -68.5t-71.5 -117t-26.5 -167q0 -190 83 -290.5t230 -100.5q61 0 118 23.5t100 70.5t68.5 121t25.5 174zM291 1380l76 133l399 -229l-59 -104z" />
<glyph unicode="&#xf3;" d="M1108 526q0 -115 -38 -214t-105.5 -172.5t-161.5 -115.5t-207 -42q-104 0 -191.5 30.5t-149.5 95t-97 162t-35 232.5q0 111 36 208t103.5 169.5t161.5 114.5t211 42q96 0 182 -27.5t150.5 -89t102.5 -159t38 -234.5zM928 516q0 180 -80 278.5t-230 98.5 q-59 0 -115.5 -22.5t-101.5 -68.5t-71.5 -117t-26.5 -167q0 -190 83 -290.5t230 -100.5q61 0 118 23.5t100 70.5t68.5 121t25.5 174zM461 1282l399 229l74 -131l-416 -200z" />
<glyph unicode="&#xf4;" d="M1108 526q0 -115 -38 -214t-105.5 -172.5t-161.5 -115.5t-207 -42q-104 0 -191.5 30.5t-149.5 95t-97 162t-35 232.5q0 111 36 208t103.5 169.5t161.5 114.5t211 42q96 0 182 -27.5t150.5 -89t102.5 -159t38 -234.5zM928 516q0 180 -80 278.5t-230 98.5 q-59 0 -115.5 -22.5t-101.5 -68.5t-71.5 -117t-26.5 -167q0 -190 83 -290.5t230 -100.5q61 0 118 23.5t100 70.5t68.5 121t25.5 174zM610 1331l-241 -143l-62 100l309 193l320 -189l-68 -104z" />
<glyph unicode="&#xf5;" d="M1108 526q0 -115 -38 -214t-105.5 -172.5t-161.5 -115.5t-207 -42q-104 0 -191.5 30.5t-149.5 95t-97 162t-35 232.5q0 111 36 208t103.5 169.5t161.5 114.5t211 42q96 0 182 -27.5t150.5 -89t102.5 -159t38 -234.5zM928 516q0 180 -80 278.5t-230 98.5 q-59 0 -115.5 -22.5t-101.5 -68.5t-71.5 -117t-26.5 -167q0 -190 83 -290.5t230 -100.5q61 0 118 23.5t100 70.5t68.5 121t25.5 174zM958 1303q-33 -31 -86 -55.5t-112 -24.5q-55 0 -94 15t-73 32.5t-66.5 33t-77.5 15.5q-41 0 -76 -18.5t-64 -49.5l-45 117q41 37 91.5 60.5 t109.5 23.5q53 0 91 -15.5t72 -33t66.5 -32.5t75.5 -15t80 18.5t65 46.5l43 -118v0z" />
<glyph unicode="&#xf6;" d="M1108 526q0 -115 -38 -214t-105.5 -172.5t-161.5 -115.5t-207 -42q-104 0 -191.5 30.5t-149.5 95t-97 162t-35 232.5q0 111 36 208t103.5 169.5t161.5 114.5t211 42q96 0 182 -27.5t150.5 -89t102.5 -159t38 -234.5zM928 516q0 180 -80 278.5t-230 98.5 q-59 0 -115.5 -22.5t-101.5 -68.5t-71.5 -117t-26.5 -167q0 -190 83 -290.5t230 -100.5q61 0 118 23.5t100 70.5t68.5 121t25.5 174zM516 1341q0 -49 -33.5 -82.5t-83.5 -33.5q-49 0 -83.5 33.5t-34.5 82.5t34.5 84t83.5 35t83 -35t34 -84zM948 1341q0 -49 -34.5 -82.5 t-84.5 -33.5q-49 0 -82.5 33.5t-33.5 82.5t33.5 84t82.5 35t84 -35t35 -84z" />
<glyph unicode="&#xf7;" d="M111 602h1007v-147h-1007v147zM733 940q0 -51 -34.5 -85t-84.5 -34q-51 0 -84.5 34t-33.5 85q0 49 33.5 84t84.5 35q49 0 84 -35t35 -84zM733 115q0 -51 -34.5 -85t-84.5 -34q-51 0 -84.5 33.5t-33.5 85.5q0 49 33.5 82.5t84.5 33.5q49 0 84 -33.5t35 -82.5z" />
<glyph unicode="&#xf8;" d="M848 993q51 -25 94 -63.5t75 -96t50 -133t18 -174.5q0 -115 -33.5 -215t-97 -174t-153.5 -115.5t-203 -41.5q-76 0 -131 20l-82 -213l-115 39l82 213q-109 66 -159 187.5t-50 275.5q0 113 34 211t96.5 169.5t153.5 113.5t206 42q23 0 49.5 -2t48.5 -6l74 191l115 -39 l-72 -189v0zM520 139q25 -10 51.5 -13t55.5 -3q57 0 110.5 23.5t94 71.5t64.5 123t24 177q0 117 -33 200t-99 126l-268 -705v0zM678 891q-37 6 -66 6q-57 0 -111.5 -21.5t-96.5 -67.5t-67.5 -119t-25.5 -175t25.5 -184t79.5 -129l262 690v0z" />
<glyph unicode="&#xf9;" d="M860 0q0 63 2 128t12 112l-4 2q-45 -125 -137 -193.5t-225 -68.5q-86 0 -145.5 25.5t-94.5 69.5t-50 103.5t-15 126.5v713h172v-658q0 -113 38 -175t142 -62q66 0 120 35t94 93t62.5 136t22.5 164v467h172v-1018h-166v0zM291 1380l76 133l399 -229l-59 -104z" />
<glyph unicode="&#xfa;" d="M860 0q0 63 2 128t12 112l-4 2q-45 -125 -137 -193.5t-225 -68.5q-86 0 -145.5 25.5t-94.5 69.5t-50 103.5t-15 126.5v713h172v-658q0 -113 38 -175t142 -62q66 0 120 35t94 93t62.5 136t22.5 164v467h172v-1018h-166v0zM461 1282l399 229l74 -131l-416 -200z" />
<glyph unicode="&#xfb;" d="M860 0q0 63 2 128t12 112l-4 2q-45 -125 -137 -193.5t-225 -68.5q-86 0 -145.5 25.5t-94.5 69.5t-50 103.5t-15 126.5v713h172v-658q0 -113 38 -175t142 -62q66 0 120 35t94 93t62.5 136t22.5 164v467h172v-1018h-166v0zM610 1331l-241 -143l-62 100l309 193l320 -189 l-68 -104z" />
<glyph unicode="&#xfc;" d="M860 0q0 63 2 128t12 112l-4 2q-45 -125 -137 -193.5t-225 -68.5q-86 0 -145.5 25.5t-94.5 69.5t-50 103.5t-15 126.5v713h172v-658q0 -113 38 -175t142 -62q66 0 120 35t94 93t62.5 136t22.5 164v467h172v-1018h-166v0zM516 1341q0 -49 -33.5 -82.5t-83.5 -33.5 q-49 0 -83.5 33.5t-34.5 82.5t34.5 84t83.5 35t83 -35t34 -84zM948 1341q0 -49 -34.5 -82.5t-84.5 -33.5q-49 0 -82.5 33.5t-33.5 82.5t33.5 84t82.5 35t84 -35t35 -84z" />
<glyph unicode="&#xfd;" d="M653 -106q-47 -117 -91 -196t-93 -128t-111.5 -70.5t-146.5 -21.5q-29 0 -64.5 4t-66.5 10l16 156q61 -20 131 -21q43 0 76 12.5t61.5 42t55 79t57.5 124.5l47 115l-407 1018h196l226 -582q20 -51 39.5 -116.5t35.5 -118.5h4q16 53 42 130t61 163l203 524h190l-461 -1124 v0zM461 1282l399 229l74 -131l-416 -200z" />
<glyph unicode="&#xfe;" d="M1065 557q0 -274 -139.5 -421.5t-382.5 -147.5q-51 0 -92 2t-89 10v-508h-174v2003h174v-487q0 -49 -2 -102.5t-10 -90.5l4 -2q41 102 128 162.5t208 60.5q180 0 277.5 -121.5t97.5 -357.5zM883 541q0 168 -56.5 260t-177.5 92q-72 0 -125 -38t-89 -96.5t-54.5 -129 t-18.5 -137.5v-342q82 -27 189 -27q74 0 135.5 23.5t105.5 73.5t67.5 130t23.5 191z" />
<glyph unicode="&#xff;" d="M653 -106q-47 -117 -91 -196t-93 -128t-111.5 -70.5t-146.5 -21.5q-29 0 -64.5 4t-66.5 10l16 156q61 -20 131 -21q43 0 76 12.5t61.5 42t55 79t57.5 124.5l47 115l-407 1018h196l226 -582q20 -51 39.5 -116.5t35.5 -118.5h4q16 53 42 130t61 163l203 524h190l-461 -1124 v0zM516 1341q0 -49 -33.5 -82.5t-83.5 -33.5q-49 0 -83.5 33.5t-34.5 82.5t34.5 84t83.5 35t83 -35t34 -84zM948 1341q0 -49 -34.5 -82.5t-84.5 -33.5q-49 0 -82.5 33.5t-33.5 82.5t33.5 84t82.5 35t84 -35t35 -84z" />
<glyph unicode="&#x131;" d="M219 885v133h535v-881h342v-137h-899v137h383v748h-361z" />
<glyph unicode="&#x141;" d="M326 580l-181 -72l-36 125l217 84v665h176v-608l188 72l33 -125l-221 -84v-490h596v-147h-772v580z" />
<glyph unicode="&#x142;" d="M172 139h377v555l-250 -96l-25 127l275 106v525h-377v139h549v-610l221 84l23 -125l-244 -94v-611h375v-139h-924v139z" />
<glyph unicode="&#x152;" d="M793 0q-41 0 -73 -2t-61 -4l-57 -4q-29 -2 -63 -2q-137 0 -233.5 49t-157 140t-88 218t-27.5 285q0 170 40 303t112.5 224t172 138.5t217.5 47.5q61 0 107.5 -5.5t105.5 -5.5h402v-145h-367v-453h342v-143h-342v-494h367v-147h-397v0zM659 1231q-27 6 -47 9t-47 3 q-78 0 -141.5 -37t-109.5 -106.5t-71.5 -171t-25.5 -230.5q0 -125 17.5 -227t59.5 -176t109.5 -114t165.5 -40q41 0 90 13v1077v0z" />
<glyph unicode="&#x153;" d="M1210 567q0 -20 -4 -45h-487q-4 -209 58.5 -304t172.5 -95q59 0 116.5 11t100.5 34l11 -145q-111 -41 -250 -41q-117 0 -186.5 53t-104.5 149q-37 -88 -104.5 -145t-170.5 -57q-92 0 -156.5 38.5t-106.5 108.5t-60.5 166t-18.5 209t25 210t71 168.5t114.5 112.5t158.5 41 q86 0 157.5 -46t108.5 -142q35 82 99.5 135t156.5 53q84 0 141.5 -34.5t92.5 -94t50 -138.5t15 -165v-37zM575 516q0 184 -49 281.5t-151 97.5q-33 0 -68 -19.5t-64.5 -64.5t-48 -117.5t-18.5 -179.5q0 -84 11.5 -154.5t36 -123t62.5 -82t91 -29.5q39 0 74.5 23.5t63.5 70.5 t44 121t16 176zM1053 645q4 121 -39 193.5t-115 72.5q-63 0 -111.5 -73.5t-60.5 -192.5h326v0z" />
<glyph unicode="&#x160;" d="M1038 389q0 -88 -36.5 -162.5t-104.5 -129t-163 -85t-212 -30.5q-100 0 -188 13t-154 36l13 172q68 -29 158.5 -48.5t189.5 -19.5q143 0 227 58.5t84 168.5q0 80 -48 129.5t-122 85t-158 68.5t-157.5 80t-121.5 117.5t-48 185.5q0 80 32.5 148.5t95 119t150.5 78 t199 27.5q86 0 155.5 -6t128.5 -17l-10 -159q-57 16 -130 26t-154 10q-135 0 -210 -57t-75 -149q0 -78 49 -126.5t122 -84t159 -68.5t158.5 -80t121.5 -117.5t49 -183.5zM332 1737l-51 -90l333 -170l324 176l-39 82l-283 -136z" />
<glyph unicode="&#x161;" d="M1024 301q0 -84 -39 -144.5t-103.5 -100.5t-147.5 -58t-173 -18q-104 0 -194.5 12t-163.5 41l18 162q74 -35 163 -56.5t198 -21.5q47 0 92 9t81 28.5t57.5 49t21.5 70.5q0 63 -46.5 96t-115 53.5t-149.5 37t-149.5 47.5t-114.5 83t-46 146q0 63 27.5 118.5t83 96.5 t136.5 64.5t185 23.5q86 0 165 -9t140 -25l-20 -148q-74 25 -145.5 37t-155.5 12q-115 0 -172.5 -42t-57.5 -103q0 -59 46.5 -91t116 -52.5t150.5 -38t150.5 -48t115.5 -85t46 -146.5zM301 1376l68 105l256 -142l243 140l64 -99l-311 -190z" />
<glyph unicode="&#x178;" d="M696 0h-174v500l-497 882h196l283 -514q68 -121 108 -211h4q18 47 46 100.5t51 94.5l299 530h192l-508 -882v-500zM836 1700q-45 0 -76 -31t-31 -76t31 -75.5t76 -30.5t75.5 30.5t30.5 75.5t-30.5 76t-75.5 31zM393 1700q-45 0 -75.5 -31t-30.5 -76t30.5 -75.5 t75.5 -30.5t76 30.5t31 75.5t-31 76t-76 31z" />
<glyph unicode="&#x17d;" d="M137 129l623 928q31 47 58.5 88t60.5 84q-51 -2 -130 -3t-182 -1h-407v157h923v-133l-655 -966q-23 -31 -42 -63t-44 -62q35 4 125 4h625v-162h-955v129zM332 1737l-51 -90l333 -170l324 176l-39 82l-283 -136z" />
<glyph unicode="&#x17e;" d="M197 121l610 749q-47 -2 -120 -3t-159 -1h-319v152h815v-121l-602 -745q20 0 54 1t74 2t81 1h401v-156h-835v121zM301 1376l68 105l256 -142l243 140l64 -99l-311 -190z" />
<glyph unicode="&#x192;" d="M594 -10q-12 -121 -40 -204t-75 -133t-115.5 -71.5t-160.5 -21.5q-31 0 -70 3t-76 9l11 147q29 -10 69.5 -13t71.5 -3q96 0 145 61.5t62 188.5l73 782h-327v133h338l22 236q20 221 119.5 315t282.5 94q35 0 82 -4t88 -10l-13 -145q-33 8 -76.5 12t-82.5 4 q-98 0 -155.5 -58.5t-70.5 -183.5l-24 -260h375v-133h-383l-70 -745v0z" />
<glyph unicode="&#x2c6;" d="M610 1331l-241 -143l-62 100l309 193l320 -189l-68 -104z" />
<glyph unicode="&#x2c7;" d="M301 1376l68 105l256 -142l243 140l64 -99l-311 -190z" />
<glyph unicode="&#x2d8;" d="M866 1470q0 -53 -15 -101t-46 -85t-79 -59.5t-114 -22.5q-68 0 -114.5 22.5t-77.5 60.5t-44.5 86t-13.5 99h119q0 -55 34 -96t99 -41q59 0 94 36t35 101h123v0z" />
<glyph unicode="&#x2d9;" d="M758 1343q0 -59 -42 -100t-102 -41q-59 0 -100 41t-41 100t41 100.5t100 41.5t101.5 -41.5t42.5 -100.5z" />
<glyph unicode="&#x2da;" d="M842 1335q0 -45 -18.5 -85t-49.5 -69.5t-71.5 -47t-88.5 -17.5q-96 0 -161.5 61.5t-65.5 157.5q0 47 18.5 88t49 71t71.5 46t88 16q98 0 163 -62.5t65 -158.5zM727 1335q0 47 -32.5 82t-80.5 35q-47 0 -79.5 -35t-32.5 -82t32.5 -81.5t79.5 -34.5t80 34.5t33 81.5z" />
<glyph unicode="&#x2db;" d="M799 -457q-59 -18 -127 -18q-115 0 -159 52t-44 130q0 68 29.5 144.5t70.5 140.5h125q-31 -55 -55.5 -126t-24.5 -122q0 -29 8.5 -50.5t29 -34.5t56 -15t91.5 8v-109v0z" />
<glyph unicode="&#x2dc;" d="M958 1303q-33 -31 -86 -55.5t-112 -24.5q-55 0 -94 15t-73 32.5t-66.5 33t-77.5 15.5q-41 0 -76 -18.5t-64 -49.5l-45 117q41 37 91.5 60.5t109.5 23.5q53 0 91 -15.5t72 -33t66.5 -32.5t75.5 -15t80 18.5t65 46.5l43 -118v0z" />
<glyph unicode="&#x2dd;" d="M643 1268l279 252l102 -111l-297 -231zM293 1264l235 264l111 -103l-256 -245z" />
<glyph unicode="&#x394;" d="M526 1434h168l535 -1434h-1229zM217 152h780l-395 1069z" />
<glyph unicode="&#x3a9;" d="M723 135q141 90 218 227.5t77 348.5q0 115 -23.5 216t-73 176t-124 119t-174.5 44q-96 0 -173 -40t-129.5 -113t-80 -173t-27.5 -221q0 -201 67.5 -339t231.5 -243v-137h-461v131h295q-152 92 -226.5 241.5t-74.5 342.5q0 150 41 276.5t117 217.5t184.5 142.5t241.5 51.5 q123 0 226 -44t177 -129t115 -210t41 -289q0 -205 -83 -359.5t-226 -240.5h301v-131h-457v135z" />
<glyph unicode="&#x3bc;" d="M895 0q0 45 3 105.5t11 111.5l-2 2q-12 -37 -36.5 -78t-66.5 -76.5t-102.5 -58t-146.5 -22.5q-80 0 -138.5 26.5t-80.5 57.5l-4 -2q4 -29 5 -83.5t1 -142.5v-348h-174v1526h174v-645q0 -129 62.5 -189.5t185.5 -60.5q74 0 131 31.5t96 86t59.5 128t20.5 159.5v490h172 v-1018h-170v0z" />
<glyph unicode="&#x3c0;" d="M1149 0q-33 -8 -72 -13t-90 -5q-68 0 -110.5 17t-67.5 52t-34 89.5t-9 125.5v613h-371v-879h-166v879h-180v139h1086v-139h-203v-478q0 -94 4 -150t17.5 -87t37 -40t62.5 -9q29 0 47 5t37 9l12 -129v0z" />
<glyph unicode="&#x2013;" d="M145 668h938v-152h-938v152z" />
<glyph unicode="&#x2014;" d="M0 668h1233v-152h-1233v152z" />
<glyph unicode="&#x2018;" d="M944 1411q-80 -23 -133 -50.5t-84 -58t-43 -61.5t-12 -57q0 -78 57 -137q33 -33 40 -76t-8.5 -81t-49 -63.5t-82.5 -25.5q-47 0 -82 20.5t-57.5 55t-34 81t-11.5 95.5q0 188 122 301.5t345 167.5l33 -111v0z" />
<glyph unicode="&#x2019;" d="M780 1260q0 -188 -121.5 -301t-345.5 -168l-32 110q80 23 133 51.5t83.5 59t44 60.5t13.5 56q0 78 -59 138q-33 33 -40 75.5t7 80.5t48 63.5t83 25.5q47 0 82 -20.5t58.5 -56t34.5 -80.5t11 -94z" />
<glyph unicode="&#x201a;" d="M780 86q0 -188 -121.5 -303t-345.5 -168l-32 113q80 20 133 48.5t83.5 58.5t44 60.5t13.5 59.5q0 78 -59 137q-33 33 -40 76t7 81t48 63.5t83 25.5q47 0 82 -20.5t58.5 -56.5t34.5 -81t11 -94z" />
<glyph unicode="&#x201c;" d="M647 1427q-139 -59 -189 -119.5t-50 -111.5q0 -31 12 -61.5t33 -51.5q31 -33 37 -72.5t-7.5 -75.5t-46.5 -60.5t-78 -24.5q-82 0 -121.5 64.5t-39.5 152.5q0 152 98 263.5t297 191.5l55 -95v0zM1143 1427q-139 -59 -188.5 -119.5t-49.5 -111.5q0 -31 12.5 -61.5 t32.5 -51.5q31 -33 36 -72.5t-8 -75.5t-46 -60.5t-78 -24.5q-82 0 -121 64.5t-39 152.5q0 152 98.5 263.5t297.5 191.5l53 -95v0z" />
<glyph unicode="&#x201d;" d="M537 1296q0 -152 -99.5 -263t-298.5 -191l-53 94q139 57 188.5 117.5t49.5 113.5q0 31 -12.5 62t-30.5 51q-31 31 -38 72t7 75.5t46 59t79 24.5q82 0 122 -63.5t40 -151.5zM1032 1296q0 -152 -98 -263t-297 -191l-55 94q139 57 189 117.5t50 113.5q0 31 -12 62t-33 51 q-31 31 -37 72t7.5 75.5t46 59t79.5 24.5q80 0 120 -63.5t40 -151.5z" />
<glyph unicode="&#x201e;" d="M1028 47q0 -295 -395 -457l-55 99q139 57 189 116.5t50 110.5q0 31 -12 62.5t-33 52.5q-31 31 -37 71.5t8.5 76.5t46 60.5t76.5 24.5q82 0 122 -64.5t40 -152.5zM530 47q0 -295 -393 -457l-55 99q139 57 189.5 116.5t50.5 110.5q0 31 -13.5 62.5t-34.5 52.5 q-31 31 -36 71.5t8.5 76.5t45.5 60.5t79 24.5q82 0 120.5 -64.5t38.5 -152.5z" />
<glyph unicode="&#x2020;" d="M721 694l-47 -700h-117l-47 700l37 301h-342v135h342l-37 365h211l-37 -365h342v-135h-342z" />
<glyph unicode="&#x2021;" d="M719 0h-213l37 379h-340v135h340l-35 246l35 246h-340v135h340l-35 354h211l-37 -354h340v-135h-340l37 -246l-37 -246h340v-135h-340z" />
<glyph unicode="&#x2022;" d="M614 934q68 0 126.5 -24.5t101.5 -67.5t67.5 -101.5t24.5 -126.5t-24.5 -126t-67.5 -101t-101.5 -67.5t-126.5 -24.5t-126 24.5t-101 67.5t-67.5 101.5t-24.5 125.5q0 68 24.5 126.5t67.5 101.5t101 67.5t126 24.5z" />
<glyph unicode="&#x2026;" d="M1141 104q0 -53 -34 -88.5t-83 -35.5t-85 35.5t-36 88.5q0 51 36 87t85 36t83 -36t34 -87zM326 104q0 -53 -36 -88.5t-85 -35.5t-83 35.5t-34 88.5q0 51 34 87t83 36t85 -36t36 -87zM731 104q0 -53 -33.5 -88.5t-83.5 -35.5q-49 0 -82.5 35.5t-33.5 88.5q0 51 33.5 87 t82.5 36t83 -36t34 -87z" />
<glyph unicode="&#x2030;" d="M1212 279q0 -74 -20.5 -131.5t-58 -98.5t-89 -63.5t-108.5 -22.5q-113 0 -181.5 67.5t-68.5 221.5q0 72 21.5 129t58.5 97t86 61.5t104 21.5q111 0 183.5 -64t72.5 -218zM543 1167q0 -74 -21.5 -131t-58.5 -98t-87 -62.5t-108 -21.5q-113 0 -182.5 67.5t-69.5 219.5 q0 74 21.5 131t58.5 97t86 60.5t105 20.5q111 0 183.5 -64.5t72.5 -218.5zM623 279q0 -74 -21.5 -131.5t-59.5 -98.5t-88.5 -63.5t-107.5 -22.5q-113 0 -181.5 67.5t-68.5 221.5q0 72 21.5 129t58.5 97t86 61.5t103 21.5q113 0 185.5 -64t72.5 -218zM0 680l1229 450v-141 l-1229 -454v145zM1075 266q0 94 -28.5 137t-100.5 43q-57 0 -90 -49t-33 -131q0 -92 27 -140t96 -48q63 0 96 50t33 138zM485 266q0 94 -28.5 137t-100.5 43q-57 0 -90 -49t-33 -131q0 -92 28 -140t93 -48q66 0 98.5 50t32.5 138zM406 1153q0 96 -28 139t-99 43 q-59 0 -92 -49t-33 -133q0 -90 27.5 -137t94.5 -47q66 0 98 49t32 135z" />
<glyph unicode="&#x2039;" d="M821 137l-145 -76l-289 451l295 457l141 -72l-256 -383z" />
<glyph unicode="&#x203a;" d="M383 135l256 381l-254 379l145 74l289 -451l-295 -457z" />
<glyph unicode="&#x2044;" d="M66 -180l935 1726l140 -67l-938 -1727z" />
<glyph unicode="&#x20ac;" d="M438 461h408v127h-424q-4 23 -4 47v51q0 57 6 111h422v127h-402q35 141 123 231t244 90q53 0 102.5 -11t102.5 -32l35 154q-61 20 -114.5 29.5t-113.5 9.5q-233 0 -373.5 -126t-191.5 -345h-164v-127h142q-4 -43 -5.5 -76t-1.5 -64v-36q0 -16 2 -33h-137v-127h150 q16 -102 53 -189.5t100.5 -151t157.5 -100t225 -36.5q66 0 134.5 11t129.5 34l-34 145q-45 -18 -89 -27.5t-102 -9.5q-311 0 -381 324z" />
<glyph unicode="&#x2122;" d="M1040 1120l-14 113l-25 -96l-94 -330h-133l-92 336l-25 90l-4 -76l-51 -350h-117l84 575h166l92 -327l21 -97l18 89l101 335h161l86 -575h-129zM297 807h-129v473h-152v102h430v-102h-149v-473z" />
<glyph unicode="&#x2202;" d="M1098 840q0 -88 -10.5 -178.5t-32 -176.5t-56 -163.5t-86.5 -143.5q-68 -86 -170 -140t-227 -54q-205 0 -309.5 114.5t-104.5 309.5q0 104 35 194t99.5 155.5t154.5 102.5t201 37q123 0 206 -55.5t122 -147.5q-2 53 -2 94q0 43 -3 84q-4 125 -40.5 217.5t-97 154 t-142.5 92t-176 30.5l18 143q141 -4 256 -50t196 -132t125 -208.5t44 -278.5zM854 487q0 115 -69.5 190t-204.5 75q-68 0 -123.5 -26t-95 -70t-62.5 -103t-23 -129q0 -147 73 -219t190 -72q68 0 126 27.5t100 75t65.5 112.5t23.5 139z" />
<glyph unicode="&#x220f;" d="M614 1372q141 0 252 -53t189 -145.5t118.5 -216t40.5 -267.5q0 -141 -40.5 -266t-118.5 -218t-189.5 -146.5t-251.5 -53.5q-145 0 -256.5 52.5t-188.5 143.5t-116 216t-39 270q0 141 41 266t119 217.5t188.5 146.5t251.5 54zM614 1241q-111 0 -195.5 -43t-143 -117.5 t-88 -175t-29.5 -215.5t29.5 -215t88 -177t143.5 -121t195 -44q111 0 196 43t143.5 119t89 177t30.5 216q0 113 -30.5 213t-89 176t-143.5 120t-196 44zM565 336h-139v706h229q57 0 101.5 -17t73 -46t43 -67t14.5 -81q0 -98 -63.5 -168.5t-200.5 -70.5h-58v-256zM748 817 q0 47 -28 82t-93 35h-62v-238h68q55 0 85 37t30 84z" />
<glyph unicode="&#x2211;" d="M135 131l469 576l-436 544v131h844v-145h-623l420 -520l-459 -565h694v-152h-909v131z" />
<glyph unicode="&#x2212;" d="M197 608h819v-147h-819v147z" />
<glyph unicode="&#x221a;" d="M516 0l-309 887h-189v131h328l199 -610q18 -59 37.5 -119t35.5 -119h3q16 59 29.5 113.5t27.5 107.5l311 1161h189l-453 -1552h-209z" />
<glyph unicode="&#x221e;" d="M1212 565q0 -74 -19 -137t-56 -110.5t-88.5 -74t-112.5 -26.5q-92 0 -171 64.5t-157 162.5q-86 -98 -162.5 -162.5t-164.5 -64.5q-123 0 -194 91t-71 239q0 74 19.5 137.5t56.5 110.5t88 73.5t113 26.5q90 0 166 -59.5t162 -165.5q80 96 159.5 160.5t167.5 64.5 q123 0 193.5 -90t70.5 -240zM532 553q-74 94 -129 143t-110 49q-59 0 -93 -54t-34 -134q0 -88 35 -138t98 -50q53 0 109 50t124 134zM1063 555q0 90 -35 140t-98 50q-55 0 -111.5 -53t-122.5 -131q61 -82 121 -137t119 -55t93 53t34 133z" />
<glyph unicode="&#x222b;" d="M961 1350q-27 6 -61 11t-60 5q-41 0 -70 -13.5t-47 -52t-27.5 -106.5t-9.5 -176q0 -123 3 -235.5t8 -232.5t8.5 -254t3.5 -298q0 -145 -19.5 -244.5t-59.5 -163t-99.5 -91t-137.5 -27.5q-29 0 -65.5 3t-67.5 9v154q29 -8 63.5 -12.5t61.5 -4.5q41 0 70.5 13.5t49 50 t29 100t9.5 170.5q0 115 -3 227.5t-8.5 235.5t-8.5 260t-3 301q0 147 20.5 248.5t61.5 165t99.5 91t136.5 27.5q29 0 61.5 -3t61.5 -9v-149v0z" />
<glyph unicode="&#x2248;" d="M1079 311q-47 -41 -114.5 -73.5t-145.5 -32.5q-76 0 -127 19.5t-95 42t-89 42t-107 19.5q-63 0 -112 -29t-84 -57l-60 120q45 41 109.5 78t151.5 37q70 0 121 -19.5t97 -43t93 -43t110 -19.5q53 0 100.5 19.5t96.5 60.5l55 -121v0zM1079 672q-47 -47 -111.5 -81 t-148.5 -34q-74 0 -124 18.5t-94 42t-90 42t-110 18.5q-63 0 -113 -28.5t-85 -57.5l-58 121q47 43 115 78.5t150 35.5q70 0 123 -19.5t99 -44t91 -44t102 -19.5q53 0 101.5 25t95.5 68l57 -121v0z" />
<glyph unicode="&#x2260;" d="M903 1059l-119 -295h328v-143h-383l-82 -201h465v-144h-518l-117 -288h-153l116 288h-323v144h379l79 201h-458v143h514l119 295h153z" />
<glyph unicode="&#x2264;" d="M168 639l745 506l101 -121l-598 -383l598 -381l-99 -127zM188 25h852v-148h-852v148z" />
<glyph unicode="&#x2265;" d="M215 254l598 385l-598 379l98 127l748 -504l-746 -508zM188 25h852v-148h-852v148z" />
<glyph unicode="&#x25ca;" d="M567 -18l-506 716l496 703h105l505 -715l-491 -704h-109zM252 702l373 -528l354 502l-375 534z" />
<glyph unicode="&#x25fc;" horiz-adv-x="1013" d="M0 1014h1014v-1014h-1014v1014z" />
<glyph unicode="&#xe000;" d="M1032 -84v1088q-80 12 -167 20t-179 8q-123 0 -224.5 -39t-175 -112.5t-114.5 -180t-41 -239.5q0 -119 29.5 -208t82 -149.5t125 -91t160.5 -30.5q119 0 210 65.5t136 196.5l5 -2q-10 -63 -14.5 -122t-4.5 -120v-53q0 -90 -24.5 -150.5t-69.5 -97.5t-110.5 -53.5 t-145.5 -16.5q-74 0 -154 15.5t-145 42.5l-10 -172q59 -16 133 -27.5t160 -11.5q164 0 268 43t164.5 107.5t83 142t22.5 147.5zM858 872v-327q0 -68 -18.5 -142.5t-54 -136t-90 -101.5t-126.5 -40q-119 0 -187.5 92t-68.5 260q0 111 28 189.5t76 129t113.5 74t139.5 23.5 q98 -1 188 -21z" />
<glyph unicode="&#xe040;" d="M897 1483l51 90l-334 170l-323 -176l39 -82l282 135z" />
<glyph unicode="&#xe041;" d="M961 1602l-76 69q-25 -29 -55.5 -48t-71.5 -19q-39 0 -69 12t-60.5 27.5t-65.5 27.5t-84 12q-72 0 -123 -30.5t-88 -85.5l76 -70q23 31 53.5 51.5t69.5 20.5t69.5 -12.5t60.5 -28t64.5 -27.5t86.5 -12q72 0 123 31t90 82z" />
<glyph unicode="&#xe044;" d="M842 1499q0 96 -64.5 158.5t-163.5 62.5q-47 0 -88 -16t-71.5 -46t-49 -71t-18.5 -88q0 -96 65.5 -157.5t161.5 -61.5q47 0 88 17.5t72 47t49.5 69.5t18.5 85zM727 1499q0 -47 -32.5 -82t-80.5 -35q-47 0 -79.5 35t-32.5 82t32.5 82t79.5 35t80 -35t33 -82z" />
<glyph unicode="&#xf6c9;" d="M520 1475l424 149l-49 121l-412 -182z" />
<glyph unicode="&#xf6ca;" d="M332 1737l-51 -90l333 -170l324 176l-39 82l-283 -136z" />
<glyph unicode="&#xf6cb;" d="M836 1700q-45 0 -76 -31t-31 -76t31 -75.5t76 -30.5t75.5 30.5t30.5 75.5t-30.5 76t-75.5 31zM393 1700q-45 0 -75.5 -31t-30.5 -76t30.5 -75.5t75.5 -30.5t76 30.5t31 75.5t-31 76t-76 31z" />
<glyph unicode="&#xf6ce;" d="M334 1745l-49 -121l424 -149l36 88z" />
<glyph unicode="&#xf8ff;" d="M1169 780q0 -123 -44 -224t-109 -165v-180l-39 -10l74 -174l-70 -19l70 -166l-72 -18l25 -57l-70 -164h-115q-10 -43 -67.5 -72t-137.5 -29q-82 0 -139 29t-61 72h-119l-113 286l72 19l-72 174l82 24l-47 103v180q-70 72 -114 171t-44 220q0 115 43 216.5t119 176 t176.5 118.5t216.5 44q117 0 217.5 -44t176 -118.5t118.5 -176t43 -216.5zM422 748q-23 -4 -38 -10.5t-31.5 -10.5t-27 10.5t-12.5 35t3.5 39.5t17.5 24q61 16 134 28.5t146 12.5q78 0 149 -10.5t130 -28.5q14 -4 21.5 -24.5t5.5 -41t-11.5 -35t-26 -8.5t-36 11t-41.5 10 l-31 -304h129q59 49 102.5 136.5t43.5 197.5q0 92 -33 171t-91.5 137.5t-138 92t-172.5 33.5q-92 0 -170.5 -33.5t-137 -92t-92.5 -137.5t-34 -171q0 -96 36 -184t112 -150h131zM348 -172l51 -125h443l26 68l-16 32l-160 -45l-26 72l223 61l-31 76zM344 227l39 -88l500 133 v72h-539v-117zM709 766q-41 6 -95 6q-20 0 -46.5 -1t-49.5 -5l35 -320h127l29 320v0zM342 31l35 -88l510 141l-35 82zM666 1544q-25 4 -52 4q-25 0 -51 -4l-22 281q74 18 147 0l-22 -281v0zM-31 1339q16 33 29.5 63t36.5 58l139 -166q-16 -18 -31.5 -38.5t-27.5 -43.5 l-146 127v0zM1114 1212q-25 41 -57 82l139 166q20 -29 33.5 -58.5t30.5 -62.5l-146 -127v0zM14 836q-6 -57 0 -111l-161 -14q-2 72 0 137l161 -12v0zM1217 725q6 53 0 111l161 12v-137zM629 815v8q0 6 -8 2v-2q6 2 6 -2q-6 0 -6 -4t2 -4t4 4v-2h2zM596 817l-2 -2l-2 2v8h-2 v-8q0 -4 4 -4t4 4v8h-2v-8zM641 819q0 4 -4 2l-2 2q0 2 6 2v2q-8 0 -8 -4t2 -4h4q0 -2 -6 -2v-2q8 0 8 4zM608 817q-4 -4 -4 2q0 8 4 4v2q-8 4 -7 -5t7 -5v2v0zM616 811q-2 10 0 20h-2q-2 -10 0 -20h2v0zM647 811q2 10 0 20h-2q2 -10 0 -20h2v0zM582 817v12h-2v-14h6v2h-4z M627 819q-2 -2 -4 -2l4 2v0z" />
<glyph unicode="&#xfb01;" d="M909 0v786h-460v-786h-170v786h-213v140h213v129q0 223 113.5 338.5t355.5 115.5q76 0 146.5 -11t135.5 -28l-35 -145q-57 18 -124.5 29.5t-120.5 11.5q-160 0 -230.5 -74.5t-70.5 -216.5v-149h630v-926h-170z" />
<glyph unicode="&#xfb02;" d="M909 1352q-47 8 -93 12t-91 4q-141 0 -208.5 -60.5t-67.5 -195.5v-186h268v-140h-268v-786h-170v786h-213v140h213v202q0 178 112.5 279.5t351.5 101.5q78 0 165 -8t171 -22v-1479h-170v1352z" />
</font>
</defs>
</svg>
