<?xml version="1.0" encoding="UTF-8"?>
<!DOCTYPE svg PUBLIC "-//W3C//DTD SVG 1.1//EN" "http://www.w3.org/Graphics/SVG/1.1/DTD/svg11.dtd">
<svg version="1.1" xmlns="http://www.w3.org/2000/svg" xmlns:xlink="http://www.w3.org/1999/xlink" x="0" y="0" width="64" height="64" viewBox="0, 0, 64, 64">
  <g id="Layer_1">
      <circle cx="32" cy="32" r="30" stroke="#007aff" stroke-width="3" fill="none" />
    <path d="M45.7,35.628 C46.694,34.633 46.694,33.014 45.69,32.01 C44.686,31.006 43.062,31.001 42.067,31.995 L34.563,39.5 L34.553,18.294 C34.567,16.881 33.413,15.726 31.999,15.742 C30.581,15.731 29.431,16.881 29.436,18.304 L29.431,39.505 L21.926,32 C20.932,31.006 19.308,31.001 18.304,32.005 C17.309,32.999 17.304,34.633 18.299,35.628 L30.186,47.494 C30.655,47.964 31.285,48.244 31.999,48.258 C32.699,48.258 33.344,47.964 33.803,47.504 L45.7,35.628 z" fill="#007aff"/>
  </g>
</svg>
