<?xml version="1.0" encoding="UTF-8"?>
<!DOCTYPE svg PUBLIC "-//W3C//DTD SVG 1.1//EN" "http://www.w3.org/Graphics/SVG/1.1/DTD/svg11.dtd">
<svg version="1.1" xmlns="http://www.w3.org/2000/svg" xmlns:xlink="http://www.w3.org/1999/xlink" x="0" y="0" width="64" height="64" viewBox="0, 0, 64, 64">
  <g id="Layer_1">
      <circle cx="32" cy="32" r="30" stroke="#007aff" stroke-width="3" fill="none" />
    <g>
      <path d="M29.344,40.944 L35.182,40.93 L35.182,36.402 C35.182,35.16 35.76,33.99 37.288,32.98 C38.818,31.991 43.111,29.936 43.111,24.572 C43.111,19.2 38.611,15.517 34.828,14.721 C31.046,13.95 26.941,14.467 24.036,17.647 C21.424,20.505 20.889,22.757 20.889,27.736 L26.727,27.736 L26.727,26.572 C26.727,23.94 27.033,21.13 30.816,20.359 C32.89,19.934 34.83,20.59 35.98,21.719 C37.303,23.015 37.317,25.912 35.204,27.339 L31.918,29.57 C29.999,30.822 29.346,32.196 29.346,34.192 L29.346,40.944 z" fill="#007aff"/>
      <path d="M29.306,43.581 L35.227,43.581 L35.227,49.595 L29.306,49.595 z" fill="#007aff"/>
    </g>
  </g>
</svg>
